<svg width="888" height="614" viewBox="0 0 888 614" fill="none" xmlns="http://www.w3.org/2000/svg">
<g clip-path="url(#clip0)">
<path d="M119.323 442.84L107.903 424.388C111.593 414.804 115.82 405.435 120.565 396.326L128.062 402.635L122.215 393.188C128.194 381.983 132.863 374.941 132.863 374.941C132.863 374.941 155.751 412.666 162.854 452.263L147.259 475.332L164.275 462.146C164.778 466.752 164.992 471.385 164.914 476.018C163.974 522.725 147.958 560.282 129.14 559.904C110.323 559.525 95.8302 521.354 96.7703 474.646C97.0618 460.166 100.643 445.083 105.443 431.161L119.323 442.84Z" fill="#E6E6E6"/>
<path d="M67.6504 463.44L48.337 453.547C46.541 443.435 45.3169 433.23 44.6703 422.98L54.3495 424.505L44.461 419.44C43.7874 406.758 44.1443 398.316 44.1443 398.316C44.1443 398.316 83.2369 418.78 109.785 449.005L108.36 476.814L116.11 456.731C118.922 460.413 121.5 464.269 123.828 468.275C147.167 508.745 152.869 549.174 136.565 558.577C120.26 567.979 88.1234 542.794 64.785 502.325C57.5498 489.779 52.8186 475.016 49.7318 460.616L67.6504 463.44Z" fill="#E6E6E6"/>
<path d="M164.626 612.807C142.371 614.23 118.123 612.724 92.3271 612.807V553.746C115.058 557.285 139.298 556.921 164.626 553.746V612.807Z" fill="#E6E6E6"/>
<path d="M689.193 342.668L453.019 380.696L452.018 151.095L688.192 0L689.193 342.668Z" fill="#E6E6E6"/>
<path d="M667.176 308.643L463.026 352.675V160.534L667.176 49.7305V308.643Z" fill="white"/>
<path d="M647.162 132.515L475.035 209.596V182.551L647.162 97.5176V132.515Z" fill="#3F3D56"/>
<path d="M647.162 204.567L475.035 265.277V238.592L647.162 170.035V204.567Z" fill="#2373FF"/>
<path d="M541.536 171.132C541.57 170.995 541.647 170.873 541.756 170.785C541.866 170.696 542.001 170.646 542.141 170.641C542.282 170.636 542.42 170.678 542.535 170.759C542.65 170.84 542.735 170.957 542.777 171.091L545.564 179.874L548.903 190.397C548.952 190.55 548.941 190.717 548.873 190.863C548.805 191.009 548.685 191.125 548.536 191.187L542.084 193.876L536.414 196.238C536.303 196.284 536.183 196.299 536.065 196.28C535.947 196.262 535.836 196.211 535.746 196.133C535.655 196.055 535.588 195.954 535.551 195.84C535.515 195.726 535.511 195.605 535.539 195.489L538.641 182.891L541.536 171.132Z" fill="#E6E6E6"/>
<path d="M531.185 236.623C531.24 236.397 531.368 236.196 531.548 236.05C531.728 235.904 531.951 235.821 532.183 235.813C532.415 235.805 532.643 235.874 532.833 236.008C533.022 236.142 533.163 236.334 533.233 236.555L535.569 243.918L538.792 254.074C538.872 254.328 538.855 254.602 538.743 254.844C538.631 255.085 538.432 255.276 538.186 255.378L532.089 257.919L527.186 259.962C527.004 260.038 526.805 260.062 526.61 260.031C526.415 260 526.233 259.916 526.084 259.788C525.934 259.66 525.823 259.492 525.763 259.305C525.703 259.117 525.696 258.916 525.743 258.725L528.646 246.935L531.185 236.623Z" fill="#E6E6E6"/>
<path d="M647.162 276.621L475.035 320.96V292.632L647.162 239.965V276.621Z" fill="#F2F2F2"/>
<path d="M643.159 151.981C643.159 158.008 640.458 164.001 637.154 165.355C633.879 166.697 631.245 162.969 631.245 157.037C631.245 151.105 633.879 145.141 637.154 143.703C640.458 142.253 643.159 145.954 643.159 151.981Z" fill="#3F3D56"/>
<path d="M639.156 153.68C639.156 155.689 638.258 157.694 637.154 158.157C636.054 158.619 635.164 157.373 635.164 155.374C635.164 153.376 636.054 151.374 637.154 150.902C638.258 150.428 639.156 151.671 639.156 153.68Z" fill="white"/>
<path d="M643.159 222.034C643.159 228.061 640.458 234.053 637.154 235.408C633.879 236.75 631.245 233.021 631.245 227.09C631.245 221.158 633.879 215.193 637.154 213.756C640.458 212.306 643.159 216.007 643.159 222.034Z" fill="#2373FF"/>
<path d="M639.156 223.733C639.156 225.742 638.258 227.747 637.154 228.21C636.054 228.672 635.164 227.425 635.164 225.427C635.164 223.429 636.054 221.427 637.154 220.954C638.258 220.48 639.156 221.724 639.156 223.733Z" fill="white"/>
<path d="M643.159 292.085C643.159 298.112 640.458 304.104 637.154 305.458C633.879 306.801 631.245 303.072 631.245 297.14C631.245 291.209 633.879 285.244 637.154 283.807C640.458 282.357 643.159 286.058 643.159 292.085Z" fill="#F2F2F2"/>
<path d="M639.156 293.784C639.156 295.793 638.258 297.798 637.154 298.261C636.054 298.723 635.164 297.476 635.164 295.478C635.164 293.479 636.054 291.478 637.154 291.005C638.258 290.531 639.156 291.775 639.156 293.784Z" fill="white"/>
<path d="M547.185 294.669C547.24 294.444 547.368 294.243 547.548 294.097C547.728 293.951 547.951 293.868 548.183 293.86C548.415 293.852 548.643 293.921 548.833 294.055C549.022 294.189 549.163 294.381 549.233 294.602L551.569 301.965L554.792 312.121C554.872 312.375 554.855 312.649 554.743 312.891C554.631 313.132 554.432 313.323 554.186 313.425L548.089 315.966L543.186 318.009C543.004 318.085 542.805 318.109 542.61 318.078C542.415 318.047 542.233 317.963 542.084 317.835C541.934 317.706 541.823 317.539 541.763 317.352C541.703 317.164 541.696 316.963 541.743 316.772L544.646 304.982L547.185 294.669Z" fill="#E6E6E6"/>
<path d="M506.558 282.355L515.869 273.766C515.869 273.766 536.946 259.248 529.584 251.267C522.222 243.285 507.384 261.897 507.384 261.897L498.175 267.929L506.558 282.355Z" fill="#A0616A"/>
<path d="M383.45 286.353L378.026 293.818C378.026 293.818 370.446 322.968 408.805 324.516C408.805 324.516 457.793 348.265 469.92 333.386C482.047 318.507 515.508 282.718 515.508 282.718L495.824 262.713L455.712 304.638L416.797 285.138C416.797 285.138 396.752 274.083 383.45 286.353Z" fill="#181921"/>
<path d="M357.923 424.68L307.135 611.797L313.533 613.077L366.88 424.68H357.923Z" fill="#E6E6E6"/>
<path d="M419.494 424.68L470.281 611.797L463.883 613.077L410.536 424.68H419.494Z" fill="#E6E6E6"/>
<path d="M384.795 420.839L393.312 612.108L400.708 612.437L391.194 418.279L384.795 420.839Z" fill="#E6E6E6"/>
<path d="M408.469 417.814C408.469 422.665 395.188 427.873 377.757 429.547C359.049 431.343 342.846 428.427 342.846 422.913C342.846 417.398 359.049 411.965 377.757 410.854C395.188 409.818 408.469 412.963 408.469 417.814Z" fill="#E6E6E6"/>
<path d="M427.024 385.01L439.82 393.967C439.82 393.967 494.845 433.636 489.727 448.992C484.608 464.348 456.456 525.771 456.456 525.771L420.625 514.254L461.574 448.992L439.82 428.518L428.303 400.366L427.024 385.01Z" fill="#181921"/>
<path d="M377.117 361.975C377.117 361.975 351.524 401.644 366.88 413.161C382.236 424.678 425.744 469.466 425.744 469.466L434.702 489.94L466.693 593.592L506.362 573.117L470.532 492.499C470.532 492.499 466.693 463.067 453.896 446.432C441.1 429.796 435.981 405.483 435.981 405.483L439.82 393.966L416.908 357.305L377.117 361.975Z" fill="#181921"/>
<path d="M446.708 518.438L423.708 511.438C423.708 511.438 398.872 510.415 400.151 519.372C401.431 528.33 421.905 587.194 428.304 583.355C434.702 579.516 429.583 561.601 429.583 561.601L446.708 518.438Z" fill="#181921"/>
<path d="M395.672 237.211L382.876 251.287L403.35 284.558L412.308 258.965L395.672 237.211Z" fill="#A0616A"/>
<path d="M407.829 286.476L385.101 248.838L377.117 250.645V263.442L374.558 370.933L416.787 364.534C416.787 364.534 419.346 295.433 407.829 286.476Z" fill="#2373FF"/>
<path d="M396.312 285.197L377.117 250.646L360.482 258.324L331.05 378.612L313.135 413.162C313.135 413.162 371.999 442.594 386.075 413.162C400.151 383.73 401.431 318.468 401.431 318.468L396.312 285.197Z" fill="#181921"/>
<path d="M368.16 263.442L360.482 258.324C360.482 258.324 331.05 251.925 331.05 290.315C331.05 290.315 309.296 340.221 324.652 351.738C340.008 363.255 377.117 395.246 377.117 395.246L396.312 374.772L352.804 336.382L370.719 296.713C370.719 296.713 380.956 276.239 368.16 263.442Z" fill="#181921"/>
<path d="M377.118 386.29L386.075 395.247C386.075 395.247 401.431 415.722 409.109 408.044C416.787 400.366 397.592 386.29 397.592 386.29L391.194 377.332L377.118 386.29Z" fill="#A0616A"/>
<path d="M406.346 274.863L428.304 328.705C428.304 328.705 437.261 355.577 437.261 365.814V393.967L412.948 361.976C412.948 361.976 399.743 278.606 406.346 274.863Z" fill="#181921"/>
<path d="M476.258 583.388C476.258 583.388 469.919 608.348 478.239 610.461C486.559 612.574 556.367 614.362 556.412 602.564C556.456 590.766 511.105 581.02 511.105 581.02L494.351 570.27L476.258 583.388Z" fill="#181921"/>
<path d="M411.668 260.884C424.389 260.884 434.702 250.571 434.702 237.85C434.702 225.129 424.389 214.816 411.668 214.816C398.947 214.816 388.634 225.129 388.634 237.85C388.634 250.571 398.947 260.884 411.668 260.884Z" fill="#A0616A"/>
<path d="M436.23 233.715C436.23 233.715 440.729 214.218 436.23 209.719V212.718C436.23 212.718 433.23 202.22 427.231 205.22C427.231 205.22 419.733 199.221 418.233 202.22C409.409 194.242 370.28 201.722 389.274 243.609C389.274 243.609 392.738 230.715 392.738 235.214C392.738 235.214 401.736 226.216 403.236 223.217C404.735 220.217 430.231 239.714 436.23 233.715Z" fill="#181921"/>
<path d="M888 611.672H0V613.913H888V611.672Z" fill="#3F3D56"/>
</g>
<defs>
<clipPath id="clip0">
<rect width="888" height="613.913" fill="white"/>
</clipPath>
</defs>
</svg>
