<svg width="235" height="142" viewBox="0 0 235 142" fill="none" xmlns="http://www.w3.org/2000/svg">
<g clip-path="url(#clip0)">
<path d="M135.152 53.3881C139.437 53.3881 142.911 49.914 142.911 45.6286C142.911 41.3432 139.437 37.8691 135.152 37.8691C130.867 37.8691 127.393 41.3432 127.393 45.6286C127.393 49.914 130.867 53.3881 135.152 53.3881Z" fill="#2F2E41"/>
<path d="M137.314 38.0828C138.657 38.083 139.977 38.4316 141.144 39.0946C142.312 39.7576 143.288 40.7123 143.976 41.8654C144.665 43.0184 145.042 44.3303 145.071 45.6729C145.101 47.0155 144.782 48.3427 144.145 49.5248C144.817 48.6832 145.307 47.7106 145.583 46.669C145.859 45.6275 145.915 44.5399 145.748 43.4755C145.58 42.4111 145.193 41.3932 144.61 40.4868C144.028 39.5804 143.263 38.8053 142.364 38.2109C141.465 37.6165 140.453 37.2159 139.391 37.0345C138.328 36.8531 137.24 36.895 136.195 37.1575C135.15 37.4199 134.171 37.8972 133.321 38.5589C132.47 39.2206 131.767 40.0522 131.256 41.0007C131.981 40.0901 132.903 39.3548 133.951 38.8496C135 38.3444 136.15 38.0823 137.314 38.0828Z" fill="#2F2E41"/>
<path d="M120.652 45.6122C133.241 45.6122 143.446 35.4073 143.446 22.8188C143.446 10.2304 133.241 0.0253906 120.652 0.0253906C108.064 0.0253906 97.8589 10.2304 97.8589 22.8188C97.8589 35.4073 108.064 45.6122 120.652 45.6122Z" fill="#2F2E41"/>
<path d="M102.763 8.67657C106.69 4.25957 112.18 1.54126 118.074 1.09535C123.968 0.649444 129.804 2.51082 134.352 6.28664C134.165 6.10946 133.981 5.93085 133.787 5.75867C129.269 1.74387 123.341 -0.311947 117.307 0.0433575C111.273 0.398662 105.628 3.13599 101.612 7.65333C97.5959 12.1707 95.5387 18.0981 95.8927 24.132C96.2466 30.1659 98.9826 35.8122 103.499 39.8291C103.693 40.0013 103.892 40.1635 104.089 40.3278C99.807 36.2541 97.2748 30.6758 97.0273 24.7704C96.7797 18.865 98.8362 13.0944 102.763 8.67657Z" fill="#2F2E41"/>
<path d="M120.459 45.4186C128.567 45.4186 135.139 38.8459 135.139 30.7381C135.139 22.6303 128.567 16.0576 120.459 16.0576C112.351 16.0576 105.778 22.6303 105.778 30.7381C105.778 38.8459 112.351 45.4186 120.459 45.4186Z" fill="#FFB8B8"/>
<path d="M110.028 35.374C110.028 35.374 111.96 53.1452 108.869 55.0768C105.778 57.0084 126.64 59.7128 126.64 59.7128C126.64 59.7128 123.55 40.3963 131.276 35.374H110.028Z" fill="#FFB8B8"/>
<path d="M128.572 51.9862C128.572 51.9862 134.324 49.2998 126.039 50.2567C117.754 51.2135 110.607 47.5434 110.607 47.5434C110.607 47.5434 108.096 45.0322 107.71 47.7365C107.324 50.4408 108.869 55.4631 100.37 56.2358C91.8704 57.0084 84.1439 54.6905 81.0532 60.4854C77.9626 66.2803 79.5079 91.3917 79.5079 91.3917C79.5079 91.3917 85.3028 112.254 89.9388 115.344C94.5747 118.435 135.139 114.185 135.139 114.185L146.729 93.3234V68.9846C146.729 68.9846 145.184 60.4854 134.367 62.8034C134.367 62.8034 127.413 61.2581 127.799 57.7811C128.185 54.3041 128.572 51.9862 128.572 51.9862Z" fill="#D0CDE1"/>
<path d="M91.4723 130.108C91.7111 129.068 91.871 128.479 91.871 128.479L91.7474 127.633L90.4746 118.99L89.9395 115.344C94.5744 113.412 95.7341 104.526 95.7341 104.526L95.909 104.422L96.6999 103.949V103.947L99.5397 102.243L99.5973 102.209L100.744 102.972L103.075 104.526C111.227 110.522 119.529 110.415 124.652 109.47C127.784 108.893 129.731 108.004 129.731 108.004L135.35 106.13L135.525 106.072L135.698 106.098L138.994 106.597L139.054 106.607L139.327 106.648L138.563 111.924L137.457 119.593C140.38 121.141 142.979 124.049 145.251 127.633C145.754 128.426 146.242 129.251 146.714 130.108C147.328 131.217 147.914 132.37 148.473 133.551C148.541 133.692 148.607 133.835 148.673 133.977C148.888 134.44 149.102 134.907 149.308 135.376H90.449C90.5257 134.905 90.6025 134.455 90.6771 134.022C90.681 134.008 90.6838 133.993 90.6856 133.977C90.7133 133.833 90.7389 133.692 90.7624 133.551C91.0225 132.144 91.2741 130.969 91.4723 130.108Z" fill="#2F2E41"/>
<path d="M89.1665 55.8495C89.1665 55.8495 93.4161 63.5761 91.8708 73.2344C90.3255 82.8926 96.5068 106.845 96.5068 106.845L101.143 105.686C101.143 105.686 98.0521 85.5969 98.8247 80.9609C99.5974 76.325 99.5974 58.1675 95.7341 55.8495C91.8708 53.5316 89.1665 55.8495 89.1665 55.8495Z" fill="#2F2E41"/>
<path d="M134.095 63.8791L135.719 106.652L138.81 108.584C138.81 108.584 143.252 61.6445 140.934 61.6445H136.218C135.93 61.6445 135.644 61.7032 135.379 61.8169C135.114 61.9306 134.875 62.0971 134.677 62.3061C134.478 62.5151 134.324 62.7624 134.224 63.0328C134.124 63.3032 134.08 63.5911 134.095 63.8791Z" fill="#2F2E41"/>
<path d="M98.6314 105.879C99.6982 105.879 100.563 105.014 100.563 103.947C100.563 102.88 99.6982 102.016 98.6314 102.016C97.5645 102.016 96.6997 102.88 96.6997 103.947C96.6997 105.014 97.5645 105.879 98.6314 105.879Z" fill="#2373FF"/>
<path d="M137.264 107.811C138.331 107.811 139.196 106.946 139.196 105.879C139.196 104.812 138.331 103.947 137.264 103.947C136.197 103.947 135.333 104.812 135.333 105.879C135.333 106.946 136.197 107.811 137.264 107.811Z" fill="#2373FF"/>
<path d="M107.903 12.3877V27.0682H111.303L115.63 22.4323L115.051 27.0682H130.079L129.151 22.4323L131.006 27.0682H133.401V12.3877H107.903Z" fill="#2F2E41"/>
<path d="M105.585 29.7721C106.225 29.7721 106.744 28.8208 106.744 27.6473C106.744 26.4738 106.225 25.5225 105.585 25.5225C104.945 25.5225 104.426 26.4738 104.426 27.6473C104.426 28.8208 104.945 29.7721 105.585 29.7721Z" fill="#FFB8B8"/>
<path d="M135.333 29.7721C135.973 29.7721 136.492 28.8208 136.492 27.6473C136.492 26.4738 135.973 25.5225 135.333 25.5225C134.693 25.5225 134.174 26.4738 134.174 27.6473C134.174 28.8208 134.693 29.7721 135.333 29.7721Z" fill="#FFB8B8"/>
<path d="M143.252 105.686C143.252 105.686 125.674 102.402 124.515 108.197C123.356 113.992 144.025 111.481 144.025 111.481L143.252 105.686Z" fill="#FFB8B8"/>
<path d="M142.866 65.8945C142.866 65.8945 184.976 99.5052 177.249 107.618C169.523 115.731 140.162 113.413 140.162 113.413L142.093 103.755L159.092 101.823L150.593 93.3239L142.866 94.0966V65.8945Z" fill="#D0CDE1"/>
<path d="M80.667 121.913L86.0756 126.162C86.0756 126.162 89.9389 138.138 95.7338 134.661C101.529 131.184 90.3252 118.822 90.3252 118.822L83.7576 116.504L80.667 121.913Z" fill="#FFB8B8"/>
<path d="M86.0756 59.7129L80.6816 61.3361C80.6816 61.3361 43.1931 89.0739 41.6478 96.8005C40.1025 104.527 48.988 108.777 48.988 108.777L82.5987 124.616L86.0756 115.344L70.2361 107.231C70.2361 107.231 71.3951 104.913 66.7592 104.527C62.1232 104.141 61.3506 99.1185 61.3506 99.1185C61.3506 99.1185 70.6225 84.8243 75.6447 87.9149C80.667 91.0055 82.2123 93.3235 82.2123 93.3235L86.0756 59.7129Z" fill="#D0CDE1"/>
<path d="M163.011 131.432V132.726C163.011 133.081 162.946 133.433 162.817 133.764C162.759 133.912 162.69 134.054 162.61 134.19C162.356 134.617 161.995 134.97 161.563 135.215C161.132 135.46 160.644 135.589 160.147 135.589H64.9443C64.4478 135.589 63.9599 135.46 63.5282 135.215C63.0965 134.97 62.736 134.617 62.4819 134.19C62.4015 134.054 62.3323 133.912 62.2751 133.764C62.1461 133.433 62.0803 133.081 62.0811 132.726V131.432C62.081 131.056 62.1549 130.683 62.2988 130.336C62.4427 129.988 62.6536 129.673 62.9195 129.407C63.1854 129.141 63.501 128.93 63.8485 128.786C64.1959 128.642 64.5683 128.568 64.9443 128.568H70.432V127.965C70.432 127.949 70.435 127.934 70.441 127.919C70.447 127.905 70.4558 127.892 70.4669 127.881C70.478 127.87 70.4912 127.861 70.5057 127.855C70.5202 127.849 70.5357 127.846 70.5514 127.846H73.4146C73.4303 127.846 73.4458 127.849 73.4603 127.855C73.4748 127.861 73.488 127.87 73.4991 127.881C73.5102 127.892 73.519 127.905 73.525 127.919C73.531 127.934 73.534 127.949 73.534 127.965V128.568H75.3227V127.965C75.3227 127.949 75.3258 127.934 75.3318 127.919C75.3377 127.905 75.3465 127.892 75.3576 127.881C75.3687 127.87 75.3819 127.861 75.3964 127.855C75.4109 127.849 75.4264 127.846 75.4421 127.846H78.3053C78.321 127.846 78.3366 127.849 78.3511 127.855C78.3656 127.861 78.3787 127.87 78.3898 127.881C78.4009 127.892 78.4097 127.905 78.4157 127.919C78.4217 127.934 78.4248 127.949 78.4247 127.965V128.568H80.2156V127.965C80.2156 127.949 80.2186 127.934 80.2246 127.919C80.2306 127.905 80.2394 127.892 80.2505 127.881C80.2616 127.87 80.2748 127.861 80.2893 127.855C80.3038 127.849 80.3193 127.846 80.335 127.846H83.1982C83.2139 127.846 83.2294 127.849 83.2439 127.855C83.2584 127.861 83.2716 127.87 83.2827 127.881C83.2938 127.892 83.3026 127.905 83.3086 127.919C83.3146 127.934 83.3176 127.949 83.3176 127.965V128.568H85.1063V127.965C85.1063 127.949 85.1094 127.934 85.1154 127.919C85.1214 127.905 85.1302 127.892 85.1412 127.881C85.1523 127.87 85.1655 127.861 85.18 127.855C85.1945 127.849 85.21 127.846 85.2257 127.846H88.089C88.1046 127.846 88.1202 127.849 88.1347 127.855C88.1492 127.861 88.1623 127.87 88.1734 127.881C88.1845 127.892 88.1933 127.905 88.1993 127.919C88.2053 127.934 88.2084 127.949 88.2083 127.965V128.568H89.9971V127.965C89.997 127.949 90.0001 127.934 90.0061 127.919C90.0121 127.905 90.0209 127.892 90.032 127.881C90.0431 127.87 90.0562 127.861 90.0707 127.855C90.0852 127.849 90.1008 127.846 90.1165 127.846H92.9797C92.9954 127.846 93.0109 127.849 93.0254 127.855C93.0399 127.861 93.0531 127.87 93.0642 127.881C93.0753 127.892 93.0841 127.905 93.09 127.919C93.096 127.934 93.0991 127.949 93.0991 127.965V128.568H94.8899V127.965C94.8899 127.949 94.893 127.934 94.899 127.919C94.905 127.905 94.9138 127.892 94.9248 127.881C94.9359 127.87 94.9491 127.861 94.9636 127.855C94.9781 127.849 94.9936 127.846 95.0093 127.846H97.8726C97.8882 127.846 97.9038 127.849 97.9183 127.855C97.9328 127.861 97.9459 127.87 97.957 127.881C97.9681 127.892 97.9769 127.905 97.9829 127.919C97.9889 127.934 97.992 127.949 97.992 127.965V128.568H99.7807V127.965C99.7807 127.949 99.7837 127.934 99.7897 127.919C99.7957 127.905 99.8045 127.892 99.8156 127.881C99.8267 127.87 99.8398 127.861 99.8543 127.855C99.8688 127.849 99.8844 127.846 99.9001 127.846H122.328C122.344 127.846 122.36 127.849 122.374 127.855C122.389 127.861 122.402 127.87 122.413 127.881C122.424 127.892 122.433 127.905 122.439 127.919C122.445 127.934 122.448 127.949 122.448 127.965V128.568H124.239V127.965C124.239 127.949 124.242 127.934 124.248 127.919C124.254 127.905 124.262 127.892 124.274 127.881C124.285 127.87 124.298 127.861 124.312 127.855C124.327 127.849 124.342 127.846 124.358 127.846H127.221C127.253 127.846 127.283 127.859 127.305 127.881C127.328 127.903 127.34 127.934 127.341 127.965V128.568H129.129V127.965C129.129 127.949 129.132 127.934 129.138 127.919C129.144 127.905 129.153 127.892 129.164 127.881C129.175 127.87 129.189 127.861 129.203 127.855C129.218 127.849 129.233 127.846 129.249 127.846H132.112C132.128 127.846 132.143 127.849 132.158 127.855C132.172 127.861 132.185 127.87 132.196 127.881C132.208 127.892 132.216 127.905 132.222 127.919C132.228 127.934 132.231 127.949 132.231 127.965V128.568H134.02V127.965C134.02 127.949 134.023 127.934 134.029 127.919C134.035 127.905 134.044 127.892 134.055 127.881C134.066 127.87 134.079 127.861 134.094 127.855C134.108 127.849 134.124 127.846 134.139 127.846H137.003C137.018 127.846 137.034 127.849 137.048 127.855C137.063 127.861 137.076 127.87 137.087 127.881C137.098 127.892 137.107 127.905 137.113 127.919C137.119 127.934 137.122 127.949 137.122 127.965V128.568H138.913V127.965C138.913 127.949 138.916 127.934 138.922 127.919C138.928 127.905 138.937 127.892 138.948 127.881C138.959 127.87 138.972 127.861 138.987 127.855C139.001 127.849 139.017 127.846 139.032 127.846H141.896C141.927 127.846 141.957 127.859 141.979 127.881C142.001 127.904 142.013 127.934 142.013 127.965V128.568H143.804V127.965C143.804 127.949 143.807 127.934 143.813 127.919C143.819 127.905 143.828 127.892 143.839 127.881C143.85 127.87 143.863 127.861 143.877 127.855C143.892 127.849 143.907 127.846 143.923 127.846H146.786C146.802 127.846 146.818 127.849 146.832 127.855C146.847 127.861 146.86 127.87 146.871 127.881C146.882 127.892 146.891 127.905 146.897 127.919C146.903 127.934 146.906 127.949 146.906 127.965V128.568H148.694V127.965C148.694 127.949 148.697 127.934 148.703 127.919C148.709 127.905 148.718 127.892 148.729 127.881C148.74 127.87 148.754 127.861 148.768 127.855C148.783 127.849 148.798 127.846 148.814 127.846H151.677C151.693 127.846 151.708 127.849 151.723 127.855C151.737 127.861 151.75 127.87 151.762 127.881C151.773 127.892 151.781 127.905 151.787 127.919C151.793 127.934 151.796 127.949 151.796 127.965V128.568H160.147C160.523 128.568 160.896 128.642 161.243 128.786C161.591 128.93 161.906 129.141 162.172 129.407C162.438 129.673 162.649 129.988 162.793 130.336C162.937 130.683 163.011 131.056 163.011 131.432Z" fill="#3F3D56"/>
<path d="M190.694 133.764H34.4204V134.19H190.694V133.764Z" fill="#3F3D56"/>
<path d="M155.344 76.9316H119.859V76.2002H103.769V76.9316H68.1376C67.501 76.9316 66.8905 77.1845 66.4403 77.6346C65.9902 78.0848 65.7373 78.6953 65.7373 79.3319V127.922C65.7373 128.559 65.9902 129.169 66.4403 129.619C66.8905 130.069 67.501 130.322 68.1376 130.322H155.344C155.981 130.322 156.592 130.069 157.042 129.619C157.492 129.169 157.745 128.559 157.745 127.922V79.3319C157.745 79.0167 157.683 78.7045 157.562 78.4133C157.441 78.1221 157.265 77.8575 157.042 77.6346C156.819 77.4117 156.554 77.2349 156.263 77.1143C155.972 76.9937 155.66 76.9316 155.344 76.9316Z" fill="#3F3D56"/>
<path d="M111.811 99.2253C114.755 99.2253 117.141 96.839 117.141 93.8954C117.141 90.9517 114.755 88.5654 111.811 88.5654C108.867 88.5654 106.481 90.9517 106.481 93.8954C106.481 96.839 108.867 99.2253 111.811 99.2253Z" stroke="#D0CDE1" stroke-width="2" stroke-miterlimit="10"/>
<path d="M110.105 101.144C113.049 101.144 115.435 98.7579 115.435 95.8143C115.435 92.8707 113.049 90.4844 110.105 90.4844C107.162 90.4844 104.775 92.8707 104.775 95.8143C104.775 98.7579 107.162 101.144 110.105 101.144Z" fill="#D0CDE1"/>
<path d="M45.8416 141.467H5.54736V141.949H45.8416V141.467Z" fill="#3F3D56"/>
<path d="M221.729 141.467H181.435V141.949H221.729V141.467Z" fill="#3F3D56"/>
<path d="M29.0242 125.939C24.7793 132.869 26.2397 141.489 26.2397 141.489C26.2397 141.489 34.5827 138.874 38.8276 131.943C43.0726 125.013 41.6121 116.393 41.6121 116.393C41.6121 116.393 33.2692 119.008 29.0242 125.939Z" fill="#3F3D56"/>
<path d="M26.067 141.547L25.8256 141.509C25.7384 141.495 17.0509 140.056 11.848 133.831C6.64508 127.605 6.77028 118.8 6.77199 118.712L6.77716 118.468L7.01852 118.506C7.1058 118.52 15.7933 119.959 20.9962 126.184C26.1991 132.409 26.0739 141.215 26.0722 141.303L26.067 141.547Z" fill="#2373FF"/>
<path d="M26.4097 141.767L26.1765 141.694C26.0922 141.667 17.7082 138.974 13.4705 132.056C9.23278 125.137 10.6429 116.445 10.6575 116.358L10.6983 116.117L10.9315 116.19C11.0158 116.217 19.3998 118.91 23.6375 125.828C27.8752 132.747 26.4651 141.439 26.4505 141.526L26.4097 141.767ZM11.0423 116.678C10.8493 118.137 10.08 125.704 13.834 131.833C17.5883 137.962 24.6787 140.715 26.0658 141.206C26.2588 139.747 27.028 132.18 23.274 126.051C19.5197 119.922 12.4293 117.169 11.0422 116.678H11.0423Z" fill="#3F3D56"/>
<path d="M26.5048 119.034C29.0952 119.034 31.1951 116.934 31.1951 114.344C31.1951 111.753 29.0952 109.653 26.5048 109.653C23.9144 109.653 21.8145 111.753 21.8145 114.344C21.8145 116.934 23.9144 119.034 26.5048 119.034Z" fill="#3F3D56"/>
<path d="M85.2337 55.0594L58.3267 27.9401H45.624V27.5137H58.5047L58.5674 27.577L85.5368 54.7596L85.2337 55.0594Z" fill="#3F3D56"/>
<path d="M148.43 54.2068L175.337 27.0875H188.04V26.6611H175.159L175.096 26.7245L148.127 53.9071L148.43 54.2068Z" fill="#3F3D56"/>
<path d="M31.1267 14.5693H0V20.7259H31.1267V14.5693Z" fill="#D0CDE1"/>
<path d="M31.1267 24.0166H0V30.1731H31.1267V24.0166Z" fill="#D0CDE1"/>
<path d="M31.1267 33.4639H0V39.6204H31.1267V33.4639Z" fill="#D0CDE1"/>
<path opacity="0.15" d="M12.8768 14.5693H0V20.7258H12.8768V14.5693Z" fill="black"/>
<path opacity="0.15" d="M4.16876 24.0166H0V30.1731H4.16876V24.0166Z" fill="black"/>
<path opacity="0.15" d="M20.7512 33.4639H0V39.6204H20.7512V33.4639Z" fill="black"/>
<path d="M234.73 15.9531H203.555V18.7311H234.73V15.9531Z" fill="#D0CDE1"/>
<path d="M198.051 15.5928H191.877V21.7659H198.051V15.5928Z" fill="#2373FF"/>
<path d="M198.051 24.8535H191.877V31.0267H198.051V24.8535Z" fill="#2373FF"/>
<path d="M198.051 34.1123H191.877V40.2855H198.051V34.1123Z" fill="#2373FF"/>
<path d="M199.756 20.4873H193.156V13.8877H199.756V20.4873ZM193.583 20.0609H199.329V14.3141H193.583V20.0609Z" fill="#3F3D56"/>
<path d="M234.73 25.2129H203.555V27.9908H234.73V25.2129Z" fill="#D0CDE1"/>
<path d="M199.756 29.747H193.156V23.1475H199.756V29.747ZM193.583 29.3206H199.329V23.5739H193.583V29.3206Z" fill="#3F3D56"/>
<path d="M234.73 34.4727H203.555V37.2506H234.73V34.4727Z" fill="#D0CDE1"/>
<path d="M199.756 39.0068H193.156V32.4072H199.756V39.0068ZM193.583 38.5804H199.329V32.8336H193.583V38.5804Z" fill="#3F3D56"/>
<path d="M40.2944 21.1172C42.1784 21.1172 43.7056 19.59 43.7056 17.7061C43.7056 15.8221 42.1784 14.2949 40.2944 14.2949C38.4105 14.2949 36.8833 15.8221 36.8833 17.7061C36.8833 19.59 38.4105 21.1172 40.2944 21.1172Z" fill="#2373FF"/>
<path d="M40.2944 31.3506C42.1784 31.3506 43.7056 29.8234 43.7056 27.9395C43.7056 26.0555 42.1784 24.5283 40.2944 24.5283C38.4105 24.5283 36.8833 26.0555 36.8833 27.9395C36.8833 29.8234 38.4105 31.3506 40.2944 31.3506Z" fill="#2373FF"/>
<path d="M40.2944 40.5186C42.1784 40.5186 43.7056 38.9914 43.7056 37.1074C43.7056 35.2235 42.1784 33.6963 40.2944 33.6963C38.4105 33.6963 36.8833 35.2235 36.8833 37.1074C36.8833 38.9914 38.4105 40.5186 40.2944 40.5186Z" fill="#2373FF"/>
<path d="M38.5887 20.4782C37.8719 20.4782 37.1711 20.2656 36.5751 19.8674C35.9791 19.4691 35.5146 18.9031 35.2402 18.2408C34.9659 17.5786 34.8942 16.8498 35.034 16.1468C35.1738 15.4437 35.519 14.7979 36.0259 14.291C36.5328 13.7842 37.1786 13.439 37.8816 13.2991C38.5847 13.1593 39.3134 13.2311 39.9757 13.5054C40.6379 13.7797 41.204 14.2442 41.6022 14.8403C42.0005 15.4363 42.2131 16.137 42.2131 16.8538C42.212 17.8148 41.8298 18.736 41.1503 19.4155C40.4709 20.0949 39.5496 20.4771 38.5887 20.4782ZM38.5887 13.6559C37.9562 13.6559 37.3379 13.8434 36.812 14.1948C36.2861 14.5462 35.8762 15.0457 35.6342 15.63C35.3921 16.2144 35.3288 16.8574 35.4522 17.4777C35.5756 18.0981 35.8802 18.6679 36.3274 19.1151C36.7747 19.5624 37.3445 19.867 37.9648 19.9904C38.5852 20.1137 39.2282 20.0504 39.8125 19.8084C40.3969 19.5663 40.8963 19.1564 41.2477 18.6305C41.5991 18.1046 41.7867 17.4863 41.7867 16.8538C41.7857 16.006 41.4485 15.1931 40.8489 14.5936C40.2494 13.9941 39.4366 13.6568 38.5887 13.6559Z" fill="#3F3D56"/>
<path d="M38.5887 30.7116C37.8719 30.7116 37.1711 30.499 36.5751 30.1008C35.9791 29.7025 35.5146 29.1365 35.2402 28.4742C34.9659 27.812 34.8942 27.0832 35.034 26.3802C35.1738 25.6771 35.519 25.0313 36.0259 24.5244C36.5328 24.0176 37.1786 23.6724 37.8816 23.5325C38.5847 23.3927 39.3134 23.4645 39.9757 23.7388C40.6379 24.0131 41.204 24.4776 41.6022 25.0737C42.0005 25.6697 42.2131 26.3704 42.2131 27.0872C42.212 28.0482 41.8298 28.9694 41.1503 29.6489C40.4709 30.3283 39.5496 30.7105 38.5887 30.7116ZM38.5887 23.8893C37.9562 23.8893 37.3379 24.0768 36.812 24.4282C36.2861 24.7796 35.8762 25.2791 35.6342 25.8634C35.3921 26.4478 35.3288 27.0908 35.4522 27.7111C35.5756 28.3315 35.8802 28.9013 36.3274 29.3485C36.7747 29.7958 37.3445 30.1004 37.9648 30.2238C38.5852 30.3472 39.2282 30.2838 39.8125 30.0418C40.3969 29.7997 40.8963 29.3898 41.2477 28.8639C41.5991 28.338 41.7867 27.7197 41.7867 27.0872C41.7857 26.2394 41.4485 25.4265 40.8489 24.827C40.2494 24.2275 39.4366 23.8902 38.5887 23.8893Z" fill="#3F3D56"/>
<path d="M38.5887 39.8786C37.8719 39.8786 37.1711 39.666 36.5751 39.2678C35.9791 38.8695 35.5146 38.3035 35.2402 37.6412C34.9659 36.9789 34.8942 36.2502 35.034 35.5472C35.1738 34.8441 35.519 34.1983 36.0259 33.6914C36.5328 33.1846 37.1786 32.8394 37.8816 32.6995C38.5847 32.5597 39.3134 32.6314 39.9757 32.9058C40.6379 33.1801 41.204 33.6446 41.6022 34.2407C42.0005 34.8367 42.2131 35.5374 42.2131 36.2542C42.212 37.2151 41.8298 38.1364 41.1503 38.8158C40.4709 39.4953 39.5496 39.8775 38.5887 39.8786ZM38.5887 33.0563C37.9562 33.0563 37.3379 33.2438 36.812 33.5952C36.2861 33.9466 35.8762 34.4461 35.6342 35.0304C35.3921 35.6148 35.3288 36.2578 35.4522 36.8781C35.5756 37.4985 35.8802 38.0683 36.3274 38.5155C36.7747 38.9628 37.3445 39.2673 37.9648 39.3907C38.5852 39.5141 39.2282 39.4508 39.8125 39.2088C40.3969 38.9667 40.8963 38.5568 41.2477 38.0309C41.5991 37.505 41.7867 36.8867 41.7867 36.2542C41.7857 35.4064 41.4485 34.5935 40.8489 33.994C40.2494 33.3945 39.4366 33.0572 38.5887 33.0563Z" fill="#3F3D56"/>
<path d="M210.852 127.077H210.425V123.879C210.426 123.709 210.493 123.546 210.613 123.427C210.733 123.307 210.895 123.239 211.065 123.239H212.131C212.187 123.239 212.242 123.217 212.282 123.177C212.322 123.137 212.344 123.082 212.344 123.026V120.894C212.344 120.837 212.322 120.783 212.282 120.743C212.242 120.703 212.187 120.681 212.131 120.681H211.065C210.895 120.68 210.733 120.613 210.613 120.493C210.493 120.373 210.426 120.211 210.425 120.041V118.975C210.425 118.919 210.403 118.864 210.363 118.824C210.323 118.784 210.269 118.762 210.212 118.762H208.293C208.124 118.762 207.961 118.694 207.841 118.574C207.721 118.454 207.654 118.292 207.654 118.122V117.909C207.654 117.853 207.631 117.798 207.591 117.758C207.551 117.718 207.497 117.696 207.441 117.696H199.765C199.709 117.696 199.655 117.718 199.615 117.758C199.575 117.798 199.552 117.853 199.552 117.909V118.122C199.552 118.292 199.485 118.454 199.365 118.574C199.245 118.694 199.082 118.762 198.913 118.762H196.994C196.937 118.762 196.883 118.784 196.843 118.824C196.803 118.864 196.781 118.919 196.781 118.975V120.041C196.781 120.211 196.713 120.373 196.593 120.493C196.473 120.613 196.311 120.68 196.141 120.681H195.075C195.019 120.681 194.964 120.703 194.924 120.743C194.884 120.783 194.862 120.837 194.862 120.894V123.026C194.862 123.082 194.884 123.137 194.924 123.177C194.964 123.217 195.019 123.239 195.075 123.239H196.354C196.524 123.239 196.686 123.307 196.806 123.427C196.926 123.546 196.994 123.709 196.994 123.879V127.077H196.568V123.879C196.567 123.822 196.545 123.768 196.505 123.728C196.465 123.688 196.411 123.665 196.354 123.665H195.075C194.906 123.665 194.743 123.598 194.623 123.478C194.503 123.358 194.436 123.195 194.436 123.026V120.894C194.436 120.724 194.503 120.562 194.623 120.442C194.743 120.322 194.906 120.254 195.075 120.254H196.141C196.198 120.254 196.252 120.232 196.292 120.192C196.332 120.152 196.354 120.098 196.354 120.041V118.975C196.355 118.806 196.422 118.643 196.542 118.523C196.662 118.403 196.824 118.336 196.994 118.336H198.913C198.969 118.335 199.023 118.313 199.063 118.273C199.103 118.233 199.126 118.179 199.126 118.122V117.909C199.126 117.74 199.194 117.577 199.313 117.457C199.433 117.337 199.596 117.27 199.765 117.27H207.441C207.61 117.27 207.773 117.337 207.893 117.457C208.013 117.577 208.08 117.74 208.08 117.909V118.122C208.08 118.179 208.103 118.233 208.143 118.273C208.183 118.313 208.237 118.335 208.293 118.336H210.212C210.382 118.336 210.544 118.403 210.664 118.523C210.784 118.643 210.852 118.806 210.852 118.975V120.041C210.852 120.098 210.874 120.152 210.914 120.192C210.954 120.232 211.008 120.254 211.065 120.254H212.131C212.3 120.254 212.463 120.322 212.583 120.442C212.703 120.562 212.77 120.724 212.77 120.894V123.026C212.77 123.195 212.703 123.358 212.583 123.478C212.463 123.598 212.3 123.665 212.131 123.665H211.065C211.008 123.665 210.954 123.688 210.914 123.728C210.874 123.768 210.852 123.822 210.852 123.879V127.077Z" fill="#3F3D56"/>
<path d="M210.212 142H197.207C197.037 142 196.875 141.933 196.755 141.813C196.635 141.693 196.568 141.53 196.567 141.361V132.193H196.994V141.361C196.994 141.417 197.016 141.472 197.056 141.512C197.096 141.552 197.15 141.574 197.207 141.574H210.212C210.269 141.574 210.323 141.552 210.363 141.512C210.403 141.472 210.425 141.417 210.425 141.361V132.193H210.852V141.361C210.851 141.53 210.784 141.693 210.664 141.813C210.544 141.933 210.382 142 210.212 142Z" fill="#3F3D56"/>
<path d="M212.984 128.568H196.994C196.758 128.568 196.567 128.759 196.567 128.995V133.259C196.567 133.494 196.758 133.685 196.994 133.685H212.984C213.219 133.685 213.41 133.494 213.41 133.259V128.995C213.41 128.759 213.219 128.568 212.984 128.568Z" fill="#2373FF"/>
<path d="M211.598 132.406H195.608C195.439 132.406 195.276 132.339 195.156 132.219C195.036 132.099 194.969 131.936 194.969 131.767V127.503C194.969 127.333 195.036 127.171 195.156 127.051C195.276 126.931 195.439 126.863 195.608 126.863H211.598C211.768 126.863 211.93 126.931 212.05 127.051C212.17 127.171 212.238 127.333 212.238 127.503V131.767C212.238 131.936 212.17 132.099 212.05 132.219C211.93 132.339 211.768 132.406 211.598 132.406ZM195.608 127.29C195.552 127.29 195.498 127.312 195.458 127.352C195.418 127.392 195.395 127.446 195.395 127.503V131.767C195.395 131.823 195.418 131.878 195.458 131.918C195.498 131.957 195.552 131.98 195.608 131.98H211.598C211.655 131.98 211.709 131.957 211.749 131.918C211.789 131.878 211.811 131.823 211.811 131.767V127.503C211.811 127.446 211.789 127.392 211.749 127.352C211.709 127.312 211.655 127.29 211.598 127.29H195.608Z" fill="#3F3D56"/>
<path d="M203.177 115.777C202.61 111.959 202.46 108.091 202.73 104.24L203.177 97.8682C200.716 102.764 201.272 109.209 203.177 115.777V115.777Z" fill="#D0CDE1"/>
<path d="M205.095 116.842C204.823 114.564 204.751 112.266 204.881 109.976L205.095 106.183C203.912 109.097 204.179 112.933 205.095 116.842Z" fill="#D0CDE1"/>
</g>
<defs>
<clipPath id="clip0">
<rect width="234.73" height="142" fill="white"/>
</clipPath>
</defs>
</svg>
