<svg width="204" height="142" viewBox="0 0 204 142" fill="none" xmlns="http://www.w3.org/2000/svg">
<g clip-path="url(#clip0)">
<path d="M189.681 93.7164C191.003 93.7164 191.323 92.2715 192.988 92.2715C194.024 92.2715 196.192 92.8623 196.192 93.8748L195.1 101.532H189.065L187.809 93.0678C187.963 93.5452 188.662 93.7164 189.681 93.7164Z" fill="#9AA0B9"/>
<path d="M25.5498 141.745C22.9478 137.892 21.8626 134.829 21.8626 133.621C21.8626 121.676 62.1674 108.925 102.613 106.583C102.62 100.574 131.549 60.5801 148.511 60.5801C160.576 60.5801 168.852 68.2864 168.852 86.0538C168.852 108.548 159.999 127.567 147.381 141.745H25.5498Z" fill="#9AA0B9"/>
<path d="M26.2118 97.4172C24.5711 97.4172 23.7038 81.6642 23.7038 79.926C23.7038 78.1878 27.4551 61.7305 38.8264 61.7305C43.1138 61.7305 46.1602 66.213 46.1602 71.8172C46.1602 79.5685 35.6134 85.3268 33.9835 87.0715C31.1743 90.0705 29.6832 97.4172 26.2118 97.4172Z" fill="#2373FF"/>
<path d="M24.1502 105.218C25.1671 105.218 27.9229 97.576 27.9229 91.2611C27.9229 83.9015 21.2257 74.8958 20.3285 71.6463C18.7412 65.8837 16.1264 54.6367 8.15179 54.6367C3.62292 54.6367 0.944046 59.6202 0.944046 64.7962C0.944046 69.7797 5.79336 74.0931 10.1556 79.0465C14.4281 83.9015 13.9346 87.9945 16.3123 93.9348C18.7476 100.004 22.7275 105.218 24.1502 105.218Z" fill="#9AA0B9"/>
<path d="M24.2489 103.581C25.725 94.8492 16.3789 68.7248 9.28012 61.4102" stroke="#2373FF" stroke-width="2.38" stroke-linecap="round" stroke-linejoin="round"/>
<path d="M36.5195 67.9668C35.0904 69.1484 26.7632 83.0562 26.1416 89.7586" stroke="#9AA0B9" stroke-width="2.38" stroke-linecap="round" stroke-linejoin="round"/>
<path d="M23.6186 101.961H12.1982L17.9084 141.745H23.6186H23.7746H29.4848L35.1929 101.961H23.7746" fill="#9AA0B9"/>
<path d="M119.898 52.1523C119.898 70.3222 114.343 70.2344 114.343 72.8738C114.343 78.0606 116.93 77.4548 116.93 77.4548C116.93 77.4548 143.576 74.8518 119.898 52.1523Z" fill="#181921"/>
<path d="M179.497 16.8439V0.253906" stroke="#9AA0B9" stroke-width="2.38" stroke-linecap="round" stroke-linejoin="round"/>
<path d="M71.9512 16.8439V0.253906" stroke="#9AA0B9" stroke-width="2.38" stroke-linecap="round" stroke-linejoin="round"/>
<path d="M179.497 33.7995C177.479 33.7995 175.844 32.1607 175.844 30.139C175.844 28.1174 177.479 26.4785 179.497 26.4785C181.514 26.4785 183.15 28.1174 183.15 30.139C183.15 32.1607 181.514 33.7995 179.497 33.7995Z" fill="#FFE4AD"/>
<path d="M71.9515 33.7995C69.934 33.7995 68.2985 32.1607 68.2985 30.139C68.2985 28.1174 69.934 26.4785 71.9515 26.4785C73.969 26.4785 75.6045 28.1174 75.6045 30.139C75.6045 32.1607 73.969 33.7995 71.9515 33.7995Z" fill="#FFE4AD"/>
<path d="M22.7404 123.118C24.1311 120.69 74.4378 105.16 80.2356 104.922C91.1306 103.073 98.302 109.035 100.942 114.234C90.7973 116.518 78.7253 119.86 75.6512 121.129H74.8993C74.472 121.106 73.9871 121.101 73.4295 121.116C69.6035 121.071 66.4119 120.982 64.6901 120.879C59.4648 122.831 25.43 130.377 24.5925 129.921C23.7551 129.465 22.123 124.193 22.7404 123.118Z" fill="#738FFF"/>
<path d="M113.952 111.956C110.863 112.101 104.653 113.343 98.0798 114.89C94.0679 110.979 91.0451 105.643 91.3357 99.2637C97.5308 84.9556 122.311 66.4582 132.672 66.4668C134.23 67.7512 134.571 77.1123 135.753 82.5645C136.18 84.5639 134.136 90.3436 131.053 96.8919C123.99 102.256 117.216 108.411 113.952 111.956Z" fill="#FFD98E"/>
<path d="M23.4454 124.617L19.0298 125.754L20.3884 130.209L24.7656 129.419L23.4454 124.617Z" fill="#FF728E"/>
<path d="M125.958 63.734C126.039 64.7701 125.986 69.1027 125.469 71.2006C126.937 71.1749 135.695 63.1068 125.958 63.734Z" fill="#FF728E"/>
<path d="M128.009 64.8166C123.732 64.8166 120.265 60.2642 120.265 54.6486C120.265 49.0329 123.732 44.4805 128.009 44.4805C132.286 44.4805 135.753 49.0329 135.753 54.6486C135.753 60.2642 132.286 64.8166 128.009 64.8166Z" fill="#FF728E"/>
<path d="M128.49 41.6973C138.586 41.6973 142.589 56.3415 142.589 64.3882C142.589 71.6 139.887 73.5309 138.654 74.1217C137.421 74.7125 134.311 74.8217 132.326 75.3033C129.784 75.922 128.404 78.2596 126.054 78.2596C124.23 78.2596 123.155 76.485 123.155 75.0486C123.155 69.2282 132.873 64.3453 132.873 55.6843C131.01 55.0421 124.038 49.9538 124.038 47.9287C124.038 49.303 120.47 53.0363 119.868 53.3017C119.603 52.4262 121.062 41.6973 128.49 41.6973Z" fill="#181921"/>
<path d="M89.6873 81.0781L100.944 80.4297L102.099 100.568L90.8425 101.216L89.6873 81.0781Z" fill="#9AA0B9"/>
<path d="M80.5177 94.6119L88.2231 100.574L87.0674 80.4344L79.3619 74.4727L80.5177 94.6119Z" fill="#9AA0B9"/>
<path d="M100.248 79.1562L88.9579 80.903" stroke="#E4E4E4" stroke-width="2.38" stroke-linecap="round" stroke-linejoin="round"/>
<path d="M82.9402 74.1133L88.4282 80.9034" stroke="#E4E4E4" stroke-width="2.38" stroke-linecap="round" stroke-linejoin="round"/>
<path d="M81.4706 74.707L87.9819 80.718" stroke="#E4E4E4" stroke-width="2.38" stroke-linecap="round" stroke-linejoin="round"/>
<path d="M46.4316 123.666L44.2612 126.861L41.1764 124.956L43.0072 121.865L46.4316 123.666Z" fill="#FF728E"/>
<path d="M179.497 16.8438C183.209 16.8443 186.769 18.3225 189.394 20.9531C192.019 23.5838 193.494 27.1514 193.494 30.8714H165.496C165.496 29.0291 165.858 27.2048 166.562 25.5028C167.265 23.8007 168.297 22.2542 169.597 20.9516C170.897 19.649 172.44 18.6158 174.139 17.9109C175.838 17.2061 177.658 16.8435 179.497 16.8438Z" fill="#2373FF"/>
<path d="M71.9515 16.8438C73.7897 16.8437 75.61 17.2066 77.3083 17.9116C79.0066 18.6166 80.5497 19.6499 81.8494 20.9525C83.1492 22.2551 84.1801 23.8015 84.8834 25.5034C85.5867 27.2053 85.9485 29.0294 85.9482 30.8714H57.9633C57.9633 27.1529 59.4367 23.5865 62.0597 20.9561C64.6827 18.3258 68.2406 16.8466 71.9515 16.8438Z" fill="#2373FF"/>
<path d="M203.694 101.961H160.79" stroke="#9AA0B9" stroke-width="2.38" stroke-linecap="round" stroke-linejoin="round"/>
<path d="M182.242 101.961V141.745" stroke="#9AA0B9" stroke-width="2.38" stroke-linecap="round" stroke-linejoin="round"/>
<path d="M170.958 96.1855H180.729V101.533H170.958V96.1855Z" stroke="#2373FF" stroke-width="2.38" stroke-linecap="round" stroke-linejoin="round"/>
<path d="M133.514 58.69C132.4 58.69 131.498 57.7852 131.498 56.6692C131.498 55.5532 132.4 54.6484 133.514 54.6484C134.628 54.6484 135.531 55.5532 135.531 56.6692C135.531 57.7852 134.628 58.69 133.514 58.69Z" fill="#FF728E"/>
<path d="M88.2234 100.573L90.8467 101.221L89.691 81.0844L87.0676 80.4336L88.2234 100.573Z" fill="#E4E4E4"/>
<path d="M44.8721 126.691L43.2784 131.107L29.9204 127.71L30.4289 125.126L41.2768 124.352L44.8721 126.691Z" fill="#181921"/>
<path d="M20.6343 129.965L16.4024 131.986L9.28006 120.161L11.4526 118.682L19.7157 125.771L20.6343 129.965Z" fill="#181921"/>
<path d="M66.8395 78.2594C77.1704 80.6141 95.0231 99.6659 103.844 113.597C97.4499 114.95 89.7444 116.9 83.9018 118.542C75.0128 111.611 68.5207 100.561 67.5594 99.242C65.1326 104.193 47.8887 124.352 46.6241 124.352C45.3594 124.352 43.3022 123.453 42.4926 121.922C43.2189 117.602 61.3621 77.4759 66.8395 78.2594Z" fill="#2373FF"/>
<path d="M124.922 101.792C116.917 101.062 101.382 98.2018 100.054 97.9192C98.3831 97.566 96.8663 92.3407 98.3339 89.2475C98.8402 88.3356 99.402 88.312 99.8293 88.4126C100.257 88.5132 101.276 92.2786 102.316 92.4798C103.356 92.6811 122.587 93.8327 124.213 93.9055C124.426 92.8909 126.381 85.5399 126.851 84.9598C127.321 84.3796 137.511 89.5151 137.511 89.5151C137.042 90.8426 136.494 92.1407 135.87 93.4025C132.189 95.9306 128.385 98.8975 124.922 101.792Z" fill="#FF728E"/>
<path d="M138.855 69.7841C135.513 68.5982 127.996 72.8131 125.757 84.758C127.039 86.554 134.089 90.4799 138.184 90.4221C139.974 88.8359 145.962 72.2972 138.855 69.7841Z" fill="#FFE4AD"/>
<path d="M187.198 88.9434L189.065 101.533H195.1L196.895 88.9434" stroke="#2373FF" stroke-width="2.38" stroke-linecap="round" stroke-linejoin="round"/>
</g>
<defs>
<clipPath id="clip0">
<rect width="203" height="142" transform="matrix(-1 0 0 1 203.949 0)" fill="white"/>
</clipPath>
</defs>
</svg>
