<svg width="746" height="812" viewBox="0 0 746 812" fill="none" xmlns="http://www.w3.org/2000/svg">
<g clip-path="url(#clip0)">
<path d="M745.338 731.193C745.338 755.838 578.488 811.999 372.669 811.999C166.85 811.999 0 755.838 0 731.193C0 706.548 166.85 722.751 372.669 722.751C578.488 722.751 745.338 706.548 745.338 731.193Z" fill="#181921"/>
<path opacity="0.1" d="M745.338 731.193C745.338 755.838 578.488 811.999 372.669 811.999C166.85 811.999 0 755.838 0 731.193C0 706.548 166.85 722.751 372.669 722.751C578.488 722.751 745.338 706.548 745.338 731.193Z" fill="#181921"/>
<path d="M106.132 403.15C114.791 403.15 121.81 396.131 121.81 387.472C121.81 378.813 114.791 371.793 106.132 371.793C97.4727 371.793 90.4531 378.813 90.4531 387.472C90.4531 396.131 97.4727 403.15 106.132 403.15Z" fill="#2373FF"/>
<path d="M174.878 532.197C183.537 532.197 190.556 525.178 190.556 516.518C190.556 507.859 183.537 500.84 174.878 500.84C166.219 500.84 159.199 507.859 159.199 516.518C159.199 525.178 166.219 532.197 174.878 532.197Z" fill="#2373FF"/>
<path d="M121.811 499.635C130.471 499.635 137.49 492.615 137.49 483.956C137.49 475.297 130.471 468.277 121.811 468.277C113.152 468.277 106.133 475.297 106.133 483.956C106.133 492.615 113.152 499.635 121.811 499.635Z" fill="#2373FF"/>
<path d="M126.814 706.496C126.537 706.044 120.011 695.147 117.748 672.52C115.673 651.76 117.007 616.768 135.155 567.957C169.534 475.489 127.232 400.88 126.799 400.137L128.886 398.926C128.996 399.114 139.912 418.137 146.36 448.427C154.88 488.585 151.778 530.34 137.416 568.798C103.095 661.109 128.611 704.809 128.872 705.24L126.814 706.496Z" fill="#9AA0B9"/>
<path d="M113.369 395.914C110.03 395.914 106.765 394.924 103.988 393.068C101.212 391.213 99.0476 388.576 97.7696 385.491C96.4917 382.405 96.1573 379.01 96.8088 375.735C97.4603 372.46 99.0684 369.451 101.43 367.09C103.791 364.729 106.8 363.12 110.075 362.469C113.35 361.817 116.745 362.152 119.831 363.43C122.916 364.708 125.553 366.872 127.408 369.649C129.263 372.425 130.254 375.69 130.254 379.029C130.249 383.506 128.468 387.798 125.303 390.963C122.137 394.128 117.846 395.909 113.369 395.914V395.914ZM113.369 364.557C110.507 364.557 107.709 365.405 105.329 366.996C102.949 368.586 101.094 370.846 99.9982 373.491C98.9028 376.135 98.6161 379.045 99.1746 381.853C99.733 384.66 101.111 387.239 103.135 389.263C105.159 391.287 107.738 392.665 110.546 393.224C113.353 393.782 116.263 393.496 118.907 392.4C121.552 391.305 123.812 389.45 125.403 387.07C126.993 384.69 127.842 381.892 127.842 379.029C127.837 375.192 126.311 371.514 123.598 368.8C120.885 366.087 117.206 364.561 113.369 364.557V364.557Z" fill="#9AA0B9"/>
<path d="M162.815 452.599C171.474 452.599 178.494 445.58 178.494 436.921C178.494 428.262 171.474 421.242 162.815 421.242C154.156 421.242 147.137 428.262 147.137 436.921C147.137 445.58 154.156 452.599 162.815 452.599Z" fill="#9AA0B9"/>
<path d="M129.049 492.398C125.709 492.398 122.445 491.408 119.668 489.553C116.891 487.697 114.727 485.06 113.449 481.975C112.171 478.89 111.837 475.495 112.489 472.22C113.14 468.944 114.748 465.936 117.109 463.574C119.471 461.213 122.479 459.605 125.755 458.953C129.03 458.302 132.425 458.636 135.51 459.914C138.596 461.192 141.233 463.356 143.088 466.133C144.943 468.91 145.933 472.174 145.933 475.514C145.928 479.99 144.148 484.282 140.982 487.447C137.817 490.613 133.525 492.393 129.049 492.398ZM129.049 461.041C126.186 461.041 123.388 461.89 121.008 463.48C118.628 465.07 116.773 467.331 115.678 469.975C114.582 472.62 114.296 475.53 114.854 478.337C115.413 481.145 116.791 483.723 118.815 485.747C120.839 487.771 123.418 489.15 126.225 489.708C129.033 490.267 131.943 489.98 134.587 488.885C137.232 487.789 139.492 485.934 141.082 483.554C142.672 481.174 143.521 478.376 143.521 475.514C143.517 471.677 141.991 467.998 139.278 465.285C136.564 462.571 132.886 461.045 129.049 461.041V461.041Z" fill="#9AA0B9"/>
<path d="M170.053 524.961C166.713 524.961 163.449 523.97 160.672 522.115C157.895 520.26 155.731 517.623 154.453 514.538C153.175 511.452 152.841 508.057 153.492 504.782C154.144 501.507 155.752 498.498 158.113 496.137C160.475 493.775 163.483 492.167 166.759 491.516C170.034 490.864 173.429 491.199 176.514 492.477C179.599 493.755 182.236 495.919 184.092 498.695C185.947 501.472 186.937 504.737 186.937 508.076C186.932 512.553 185.152 516.844 181.986 520.01C178.821 523.175 174.529 524.956 170.053 524.961V524.961ZM170.053 493.603C167.19 493.603 164.392 494.452 162.012 496.043C159.632 497.633 157.777 499.893 156.682 502.538C155.586 505.182 155.3 508.092 155.858 510.9C156.417 513.707 157.795 516.286 159.819 518.31C161.843 520.334 164.422 521.712 167.229 522.271C170.037 522.829 172.947 522.542 175.591 521.447C178.236 520.352 180.496 518.497 182.086 516.117C183.676 513.737 184.525 510.939 184.525 508.076C184.521 504.239 182.995 500.56 180.282 497.847C177.568 495.134 173.89 493.608 170.053 493.603Z" fill="#9AA0B9"/>
<path d="M116.987 574.408C125.646 574.408 132.666 567.389 132.666 558.729C132.666 550.07 125.646 543.051 116.987 543.051C108.328 543.051 101.309 550.07 101.309 558.729C101.309 567.389 108.328 574.408 116.987 574.408Z" fill="#9AA0B9"/>
<path d="M136.282 707.074C136.282 707.074 120.603 668.48 167.639 639.535L136.282 707.074Z" fill="#9AA0B9"/>
<path d="M117 706.375C117 706.375 109.864 665.334 54.6367 665.686L117 706.375Z" fill="#9AA0B9"/>
<path d="M683.029 721.547H416.162C416.162 721.547 410.752 642.208 442.758 641.307C474.764 640.405 471.158 676.468 511.278 626.881C551.398 577.295 600.083 579.999 606.395 609.301C612.706 638.602 594.223 662.043 628.032 654.83C661.842 647.618 710.527 666.551 683.029 721.547Z" fill="#2373FF"/>
<path d="M545.092 721.566L544.191 721.53C546.292 669.294 557.232 635.732 566.039 616.775C575.602 596.192 584.818 587.859 584.91 587.777L585.509 588.451C585.418 588.532 576.31 596.782 566.824 617.226C558.065 636.102 547.185 669.527 545.092 721.566Z" fill="#F2F2F2"/>
<path d="M641.678 721.673L640.812 721.421C651.234 685.649 675.776 663.064 676.023 662.84L676.629 663.507C676.384 663.73 652.026 686.155 641.678 721.673Z" fill="#F2F2F2"/>
<path d="M458.195 721.61L457.302 721.486C460.838 695.984 454.451 676.199 448.47 664.092C441.994 650.983 434.605 643.823 434.531 643.752L435.155 643.102C435.23 643.173 442.733 650.443 449.278 663.693C455.315 675.913 461.763 695.881 458.195 721.61Z" fill="#F2F2F2"/>
<path d="M719.249 722.751H387.379L387.303 721.627C387.112 718.83 382.879 652.863 404.253 629.326C409.031 624.064 414.787 621.302 421.36 621.117C435.293 620.721 444.048 625.94 451.11 630.129C464.421 638.025 473.214 643.242 505.186 603.726C539.821 560.918 577.191 551.708 598.673 556.829C612.554 560.139 622.12 569.492 624.92 582.492C627.572 594.801 626.727 606.366 626.049 615.66C625.323 625.603 624.749 633.457 628.833 637.016C632.242 639.986 639.047 640.256 650.246 637.866C673.026 633.007 704.812 637.165 720.766 657.778C729.349 668.868 736.111 689.027 719.583 722.084L719.249 722.751ZM389.644 720.339H717.756C730.073 695.351 730.457 674.241 718.858 659.255C704.223 640.345 673.517 635.367 650.749 640.225C638.581 642.822 631.331 642.393 627.248 638.835C622.255 634.484 622.867 626.099 623.642 615.484C624.31 606.345 625.141 594.97 622.562 582.999C619.966 570.945 611.055 562.261 598.114 559.176C577.317 554.214 540.991 563.308 507.061 605.243C473.779 646.378 463.753 640.433 449.88 632.203C442.731 627.963 434.614 623.154 421.429 623.528C415.536 623.694 410.359 626.191 406.039 630.948C386.828 652.101 389.174 711.421 389.644 720.339Z" fill="#9AA0B9"/>
<path d="M372.669 775.818C578.488 775.818 745.338 755.839 745.338 731.194C745.338 706.549 578.488 686.57 372.669 686.57C166.85 686.57 0 706.549 0 731.194C0 755.839 166.85 775.818 372.669 775.818Z" fill="#181921"/>
<path d="M380.864 147.438C380.864 147.438 362.233 140.784 350.256 167.399C338.279 194.015 319.648 223.292 319.648 223.292L330.295 225.954C330.295 225.954 332.956 207.323 339.61 204.661L336.949 228.615C336.949 228.615 416.796 256.562 452.727 225.954L451.396 216.638C451.396 216.638 456.719 217.969 456.719 225.954L460.711 221.961C460.711 221.961 456.719 213.977 444.742 203.33C436.881 196.343 434.179 183.049 433.251 174.737C432.556 167.797 429.779 161.228 425.285 155.894C417.325 146.67 402.822 136.865 380.864 147.438Z" fill="#181921"/>
<path d="M361.213 251.792L341.916 227.671L327.443 178.223L382.921 119.127C382.921 119.127 394.982 73.2971 384.128 75.7092C373.273 78.1213 370.861 111.891 370.861 111.891L300.91 166.163C300.91 166.163 308.146 242.144 328.649 268.677L344.328 318.125L361.213 251.792Z" fill="#FFB9B9"/>
<path d="M414.277 251.792L433.574 227.671L448.046 178.223L392.568 119.127C392.568 119.127 380.508 73.2971 391.362 75.7092C402.217 78.1213 404.629 111.891 404.629 111.891L474.58 166.163C474.58 166.163 467.343 242.144 446.84 268.677L431.162 318.125L414.277 251.792Z" fill="#FFB9B9"/>
<path d="M387.744 231.289C405.062 231.289 419.101 217.25 419.101 199.931C419.101 182.613 405.062 168.574 387.744 168.574C370.426 168.574 356.387 182.613 356.387 199.931C356.387 217.25 370.426 231.289 387.744 231.289Z" fill="#FFB9B9"/>
<path d="M373.272 216.816C373.272 216.816 374.479 242.143 367.242 250.586C360.006 259.028 352.77 302.446 387.745 303.652C422.72 304.858 419.102 267.47 419.102 267.47L411.866 246.968C411.866 246.968 401.012 231.289 404.63 216.816H373.272Z" fill="#FFB9B9"/>
<path d="M340.708 497.824L366.638 505.664C366.638 505.664 387.744 493 387.744 505.061C387.744 517.121 380.508 532.8 382.92 543.654C385.332 554.508 390.156 581.042 382.92 581.042C375.683 581.042 361.211 534.006 361.211 534.006L337.09 520.739L340.708 497.824Z" fill="#FFB9B9"/>
<path d="M373.272 666.672L363.623 704.059C363.623 704.059 355.181 714.914 363.623 719.738C367.585 722.002 370.484 726.655 372.446 730.958C374.155 734.833 377.017 738.087 380.64 740.279C384.264 742.472 388.475 743.495 392.7 743.211C396.817 742.87 400.284 741.243 401.128 737.013C401.361 735.686 401.316 734.325 400.994 733.016C400.673 731.708 400.082 730.481 399.26 729.413C390.364 717.391 388.347 709.487 388.347 709.487L391.965 667.275L373.272 666.672Z" fill="#FFB9B9"/>
<path d="M349.917 205.498C349.917 205.498 360.563 190.859 369.878 188.198C379.194 185.536 380.525 172.228 380.525 172.228C380.525 172.228 404.479 198.844 419.117 200.175C433.756 201.506 420.448 168.236 420.448 168.236L393.833 161.582L368.548 164.244L348.586 177.551L349.917 205.498Z" fill="#181921"/>
<path d="M329.853 406.166L325.029 415.815C325.029 415.815 208.042 453.202 217.691 488.178C227.339 523.153 281.611 513.505 281.611 513.505L341.914 524.359L347.944 497.826L305.732 486.972L378.095 460.439L380.507 583.456L370.859 671.497L394.98 673.909C394.98 673.909 421.513 593.104 417.895 559.335C417.895 559.335 462.518 421.845 437.191 401.342C411.864 380.84 329.853 406.166 329.853 406.166Z" fill="#181921"/>
<path d="M389.16 267.485L370.341 244.742L357.594 250.584L344.328 292.796C344.328 292.796 333.473 313.299 346.74 335.007C346.74 335.007 349.152 349.48 345.534 353.098C341.916 356.716 340.71 379.631 340.71 379.631L325.031 409.782C325.031 409.782 414.279 425.461 440.812 403.752C440.812 403.752 426.889 352.421 435.331 336.742C443.774 321.064 444.98 297.028 435.331 286.174C425.683 275.319 415.485 246.966 415.485 246.966L409.644 243.23L389.16 267.485Z" fill="#9AA0B9"/>
<path d="M459.513 87.4186H447.946V75.8516H446.895V87.4186H435.328V88.4696H446.895V100.037H447.946V88.4696H459.513V87.4186Z" fill="#9AA0B9"/>
<path d="M349.583 63.235H338.016V51.668H336.965V63.235H325.398V64.286H336.965V75.853H338.016V64.286H349.583V63.235Z" fill="#9AA0B9"/>
<path d="M402.349 11.567H390.783V0H389.731V11.567H378.164V12.618H389.731V24.185H390.783V12.618H402.349V11.567Z" fill="#9AA0B9"/>
</g>
<defs>
<clipPath id="clip0">
<rect width="745.338" height="812" fill="white"/>
</clipPath>
</defs>
</svg>
