<svg width="886" height="623" viewBox="0 0 886 623" fill="none" xmlns="http://www.w3.org/2000/svg">
<g clip-path="url(#clip0)">
<path d="M461.601 348.369H400.416V350.343H409.958V369.093H411.932V350.343H449.098V369.093H451.072V350.343H461.601V348.369Z" fill="#3F3D56"/>
<path d="M484.299 300.014H468.509V315.803H475.829V369.007H477.803V315.803H484.299V300.014Z" fill="#3F3D56"/>
<path d="M461.722 342.465H400.536V344.439H461.722V342.465Z" fill="#3F3D56"/>
<path d="M461.722 337.531H400.536V339.505H461.722V337.531Z" fill="#3F3D56"/>
<path d="M461.722 332.596H400.536V334.569H461.722V332.596Z" fill="#3F3D56"/>
<path d="M618.512 374.782H616.538C616.538 281.187 540.393 205.042 446.798 205.042C353.203 205.042 277.058 281.187 277.058 374.782H275.084C275.084 280.099 352.115 203.068 446.798 203.068C541.482 203.068 618.512 280.099 618.512 374.782Z" fill="#3F3D56"/>
<path d="M161.352 322.704C250.464 322.704 322.704 250.464 322.704 161.352C322.704 72.2397 250.464 0 161.352 0C72.2397 0 0 72.2397 0 161.352C0 250.464 72.2397 322.704 161.352 322.704Z" fill="#2373FF"/>
<path opacity="0.2" d="M281.375 53.582C296.426 88.7878 298.468 128.198 287.136 164.771C275.804 201.343 251.836 232.695 219.517 253.223C187.197 273.751 148.631 282.119 110.71 276.83C72.7895 271.541 37.9848 252.94 12.5156 224.352C21.7096 245.861 35.47 265.115 52.8436 280.778C70.2171 296.441 90.7883 308.14 113.132 315.064C135.476 321.987 159.058 323.971 182.244 320.876C205.43 317.781 227.666 309.682 247.412 297.141C267.157 284.599 283.94 267.914 296.597 248.243C309.254 228.571 317.483 206.383 320.714 183.215C323.945 160.047 322.1 136.454 315.307 114.07C308.514 91.6866 296.936 71.0471 281.375 53.582V53.582Z" fill="black"/>
<path d="M161.795 161.352H162.238L170.217 618.811H153.373L161.795 161.352Z" fill="#3F3D56"/>
<path d="M191.174 410.527L187.457 403.467L160.785 417.509L164.502 424.569L191.174 410.527Z" fill="#3F3D56"/>
<path d="M755.277 360.4C827.401 360.4 885.87 301.931 885.87 229.806C885.87 157.682 827.401 99.2129 755.277 99.2129C683.152 99.2129 624.683 157.682 624.683 229.806C624.683 301.931 683.152 360.4 755.277 360.4Z" fill="#2373FF"/>
<path opacity="0.2" d="M852.42 142.58C864.601 171.075 866.254 202.972 857.082 232.573C847.91 262.174 828.512 287.549 802.353 304.164C776.195 320.779 744.981 327.551 714.289 323.27C683.596 318.99 655.427 303.935 634.812 280.796C642.254 298.205 653.391 313.788 667.453 326.466C681.514 339.143 698.164 348.612 716.248 354.216C734.333 359.82 753.419 361.425 772.186 358.92C790.952 356.415 808.949 349.86 824.93 339.709C840.912 329.558 854.495 316.054 864.74 300.133C874.984 284.211 881.645 266.253 884.259 247.501C886.874 228.75 885.381 209.655 879.883 191.538C874.385 173.421 865.015 156.716 852.42 142.58V142.58Z" fill="black"/>
<path d="M755.635 229.807H755.994L762.452 600.061H748.819L755.635 229.807Z" fill="#3F3D56"/>
<path d="M779.414 431.482L776.406 425.768L754.818 437.133L757.827 442.847L779.414 431.482Z" fill="#3F3D56"/>
<path d="M369.907 342.261C381.261 342.261 390.466 333.057 390.466 321.703C390.466 310.349 381.261 301.145 369.907 301.145C358.553 301.145 349.349 310.349 349.349 321.703C349.349 333.057 358.553 342.261 369.907 342.261Z" fill="#2373FF"/>
<path opacity="0.2" d="M385.2 307.973C387.117 312.458 387.378 317.48 385.934 322.14C384.49 326.8 381.436 330.794 377.318 333.41C373.2 336.025 368.286 337.091 363.455 336.418C358.623 335.744 354.188 333.374 350.943 329.731C352.115 332.472 353.868 334.925 356.082 336.921C358.295 338.916 360.916 340.407 363.763 341.289C366.61 342.171 369.615 342.424 372.569 342.03C375.523 341.635 378.357 340.603 380.872 339.005C383.388 337.407 385.527 335.282 387.139 332.775C388.752 330.269 389.8 327.442 390.212 324.49C390.624 321.538 390.389 318.532 389.523 315.68C388.658 312.828 387.183 310.198 385.2 307.973V307.973Z" fill="black"/>
<path d="M369.964 321.703H370.02L371.037 379.989H368.891L369.964 321.703Z" fill="#3F3D56"/>
<path d="M373.707 353.452L373.233 352.553L369.835 354.342L370.309 355.241L373.707 353.452Z" fill="#3F3D56"/>
<path d="M559.878 308.075C588.946 308.075 612.509 284.511 612.509 255.444C612.509 226.376 588.946 202.812 559.878 202.812C530.81 202.812 507.247 226.376 507.247 255.444C507.247 284.511 530.81 308.075 559.878 308.075Z" fill="#2373FF"/>
<path opacity="0.2" d="M599.029 220.289C603.938 231.773 604.604 244.628 600.908 256.558C597.211 268.487 589.393 278.714 578.851 285.41C568.309 292.106 555.729 294.836 543.359 293.11C530.99 291.385 519.637 285.318 511.329 275.993C514.328 283.009 518.817 289.289 524.484 294.398C530.151 299.508 536.861 303.324 544.149 305.582C551.438 307.841 559.13 308.487 566.693 307.478C574.256 306.468 581.509 303.827 587.95 299.736C594.391 295.645 599.865 290.202 603.994 283.786C608.123 277.369 610.807 270.131 611.861 262.574C612.914 255.017 612.313 247.321 610.097 240.02C607.881 232.718 604.105 225.986 599.029 220.289V220.289Z" fill="black"/>
<path d="M560.023 255.443H560.167L562.77 404.662H557.275L560.023 255.443Z" fill="#3F3D56"/>
<path d="M569.606 336.721L568.394 334.418L559.693 338.998L560.906 341.301L569.606 336.721Z" fill="#3F3D56"/>
<path d="M197.523 596.037C197.523 596.037 198.204 581.758 212.175 583.417Z" fill="#3F3D56"/>
<path d="M193.576 582.449C197.437 582.449 200.568 579.319 200.568 575.457C200.568 571.595 197.437 568.465 193.576 568.465C189.714 568.465 186.583 571.595 186.583 575.457C186.583 579.319 189.714 582.449 193.576 582.449Z" fill="#2373FF"/>
<path d="M194.412 587.23H192.438V601.047H194.412V587.23Z" fill="#3F3D56"/>
<path d="M246.866 563.471C246.866 563.471 247.548 549.191 261.518 550.851Z" fill="#3F3D56"/>
<path d="M242.918 549.883C246.78 549.883 249.911 546.752 249.911 542.891C249.911 539.029 246.78 535.898 242.918 535.898C239.057 535.898 235.926 539.029 235.926 542.891C235.926 546.752 239.057 549.883 242.918 549.883Z" fill="#2373FF"/>
<path d="M243.754 554.664H241.781V568.48H243.754V554.664Z" fill="#3F3D56"/>
<path d="M395.605 452.987C395.605 452.987 396.146 441.646 407.242 442.964Z" fill="#3F3D56"/>
<path d="M392.47 442.193C395.537 442.193 398.023 439.707 398.023 436.639C398.023 433.572 395.537 431.086 392.47 431.086C389.402 431.086 386.916 433.572 386.916 436.639C386.916 439.707 389.402 442.193 392.47 442.193Z" fill="#2373FF"/>
<path d="M393.134 445.992H391.566V456.966H393.134V445.992Z" fill="#3F3D56"/>
<path d="M612.714 417.46C612.714 417.46 613.256 406.118 624.352 407.437Z" fill="#3F3D56"/>
<path d="M609.579 406.668C612.646 406.668 615.132 404.181 615.132 401.114C615.132 398.047 612.646 395.561 609.579 395.561C606.512 395.561 604.025 398.047 604.025 401.114C604.025 404.181 606.512 406.668 609.579 406.668Z" fill="#2373FF"/>
<path d="M610.243 410.465H608.676V421.438H610.243V410.465Z" fill="#3F3D56"/>
<path d="M405.474 482.593C405.474 482.593 406.015 471.251 417.111 472.57Z" fill="#3F3D56"/>
<path d="M402.338 471.8C405.405 471.8 407.892 469.314 407.892 466.247C407.892 463.18 405.405 460.693 402.338 460.693C399.271 460.693 396.785 463.18 396.785 466.247C396.785 469.314 399.271 471.8 402.338 471.8Z" fill="#2373FF"/>
<path d="M403.002 475.598H401.435V486.571H403.002V475.598Z" fill="#3F3D56"/>
<path d="M381.789 504.304C381.789 504.304 382.33 492.962 393.426 494.28Z" fill="#3F3D56"/>
<path d="M378.654 493.511C381.721 493.511 384.207 491.025 384.207 487.958C384.207 484.891 381.721 482.404 378.654 482.404C375.586 482.404 373.1 484.891 373.1 487.958C373.1 491.025 375.586 493.511 378.654 493.511Z" fill="#2373FF"/>
<path d="M379.318 497.309H377.75V508.282H379.318V497.309Z" fill="#3F3D56"/>
<path d="M646.268 436.21C646.268 436.21 646.809 424.868 657.905 426.187Z" fill="#3F3D56"/>
<path d="M643.133 425.418C646.2 425.418 648.686 422.931 648.686 419.864C648.686 416.797 646.2 414.311 643.133 414.311C640.066 414.311 637.579 416.797 637.579 419.864C637.579 422.931 640.066 425.418 643.133 425.418Z" fill="#2373FF"/>
<path d="M643.797 429.215H642.229V440.188H643.797V429.215Z" fill="#3F3D56"/>
<path d="M326.525 460.882C326.525 460.882 327.066 449.54 338.162 450.859Z" fill="#3F3D56"/>
<path d="M323.389 450.089C326.457 450.089 328.943 447.603 328.943 444.536C328.943 441.469 326.457 438.982 323.389 438.982C320.322 438.982 317.836 441.469 317.836 444.536C317.836 447.603 320.322 450.089 323.389 450.089Z" fill="#2373FF"/>
<path d="M324.053 453.887H322.486V464.86H324.053V453.887Z" fill="#3F3D56"/>
<path d="M583.108 404.63C583.108 404.63 583.65 393.288 594.746 394.607Z" fill="#3F3D56"/>
<path d="M579.973 393.837C583.041 393.837 585.527 391.351 585.527 388.284C585.527 385.217 583.041 382.73 579.973 382.73C576.906 382.73 574.42 385.217 574.42 388.284C574.42 391.351 576.906 393.837 579.973 393.837Z" fill="#2373FF"/>
<path d="M580.637 397.637H579.07V408.61H580.637V397.637Z" fill="#3F3D56"/>
<path d="M111.666 598.998C111.666 598.998 112.347 584.719 126.318 586.378Z" fill="#3F3D56"/>
<path d="M107.719 585.41C111.58 585.41 114.711 582.28 114.711 578.418C114.711 574.556 111.58 571.426 107.719 571.426C103.857 571.426 100.727 574.556 100.727 578.418C100.727 582.28 103.857 585.41 107.719 585.41Z" fill="#2373FF"/>
<path d="M108.555 590.191H106.581V604.008H108.555V590.191Z" fill="#3F3D56"/>
<path d="M791.613 595.051C791.613 595.051 792.295 580.771 806.265 582.431Z" fill="#3F3D56"/>
<path d="M787.666 581.463C791.528 581.463 794.658 578.332 794.658 574.471C794.658 570.609 791.528 567.479 787.666 567.479C783.804 567.479 780.674 570.609 780.674 574.471C780.674 578.332 783.804 581.463 787.666 581.463Z" fill="#2373FF"/>
<path d="M788.502 586.244H786.528V600.06H788.502V586.244Z" fill="#3F3D56"/>
<path d="M734.375 561.498C734.375 561.498 735.057 547.219 749.028 548.878Z" fill="#3F3D56"/>
<path d="M730.428 547.908C734.29 547.908 737.42 544.778 737.42 540.916C737.42 537.054 734.29 533.924 730.428 533.924C726.567 533.924 723.436 537.054 723.436 540.916C723.436 544.778 726.567 547.908 730.428 547.908Z" fill="#2373FF"/>
<path d="M731.264 552.691H729.29V566.507H731.264V552.691Z" fill="#3F3D56"/>
<path d="M726.48 611.828C726.48 611.828 727.162 597.549 741.133 599.208Z" fill="#3F3D56"/>
<path d="M722.533 598.238C726.395 598.238 729.525 595.108 729.525 591.246C729.525 587.384 726.395 584.254 722.533 584.254C718.672 584.254 715.541 587.384 715.541 591.246C715.541 595.108 718.672 598.238 722.533 598.238Z" fill="#2373FF"/>
<path d="M723.369 603.021H721.396V616.838H723.369V603.021Z" fill="#3F3D56"/>
<path d="M123.026 622.485C123.026 622.485 433.888 540.576 430.927 456.693C425.499 433.501 387.998 427.58 387.998 427.58C387.998 427.58 299.181 415.738 347.537 387.119C395.893 358.5 528.133 365.408 528.133 365.408C528.133 365.408 391.946 387.119 452.144 398.961C500.501 401.922 562.673 414.751 562.673 414.751C562.673 414.751 688.991 441.396 706.755 506.529C724.518 571.662 709.715 621.992 709.715 621.992L123.026 622.485Z" fill="#E6E6E6"/>
<path d="M461.608 622.805L460.444 621.178C462.088 620.002 463.708 618.833 465.303 617.67L466.481 619.287C464.879 620.452 463.255 621.625 461.608 622.805Z" fill="white"/>
<path d="M476.118 612.131L474.911 610.537C478.142 608.09 481.325 605.628 484.371 603.22L485.611 604.788C482.554 607.205 479.36 609.676 476.118 612.131ZM494.941 597.231L493.664 595.692C496.792 593.094 499.85 590.482 502.754 587.932L504.075 589.434C501.157 591.997 498.083 594.621 494.941 597.231V597.231ZM512.973 581.362L511.604 579.903C514.589 577.104 517.467 574.301 520.159 571.571L521.582 572.976C518.873 575.723 515.976 578.545 512.973 581.362V581.362ZM529.832 564.222L528.343 562.886C531.085 559.831 533.679 556.771 536.052 553.793L537.617 555.039C535.219 558.048 532.6 561.138 529.832 564.222V564.222ZM544.785 545.355L543.132 544.228C545.458 540.82 547.555 537.419 549.367 534.118L551.121 535.081C549.278 538.438 547.146 541.895 544.785 545.355ZM556.285 524.141L554.423 523.41C555.873 519.75 557.009 515.973 557.819 512.12L559.778 512.523C558.946 516.488 557.777 520.374 556.285 524.141V524.141ZM558.955 500.444C558.895 496.557 558.355 492.692 557.346 488.938L559.278 488.416C560.329 492.33 560.892 496.359 560.955 500.411L558.955 500.444ZM552.971 478.142C551.072 474.712 548.842 471.475 546.315 468.478L547.848 467.194C550.46 470.292 552.763 473.636 554.725 477.181L552.971 478.142ZM538.051 460.037C535.079 457.419 531.966 454.966 528.725 452.69L529.879 451.057C533.18 453.376 536.351 455.874 539.377 458.541L538.051 460.037ZM518.703 446.253C515.431 444.33 511.902 442.411 508.215 440.55L509.116 438.765C512.841 440.645 516.408 442.584 519.716 444.528L518.703 446.253ZM497.406 435.439C493.924 433.892 490.216 432.335 486.384 430.811L487.125 428.953C490.98 430.486 494.712 432.054 498.218 433.61L497.406 435.439ZM475.17 426.56C471.607 425.268 467.797 423.941 463.849 422.618L464.484 420.722C468.448 422.051 472.273 423.382 475.852 424.679L475.17 426.56ZM452.439 418.913C448.954 417.813 445.202 416.656 440.968 415.374L441.548 413.46C445.789 414.744 449.548 415.904 453.041 417.005L452.439 418.913ZM429.46 411.92C425.414 410.71 421.557 409.554 417.945 408.441L418.534 406.529C422.141 407.642 425.992 408.796 430.033 410.004L429.46 411.92ZM406.476 404.732C402.629 403.463 398.866 401.948 395.212 400.198L396.111 398.411C399.686 400.122 403.366 401.602 407.13 402.842L406.476 404.732ZM391.373 391.622L389.947 390.22C391.771 388.367 395.377 386.555 400.973 384.678L401.608 386.574C396.392 388.323 392.948 390.022 391.373 391.622L391.373 391.622ZM413.05 383.316L412.566 381.375C416.025 380.514 419.966 379.612 424.278 378.696L424.693 380.653C420.404 381.563 416.486 382.46 413.05 383.316V383.316ZM436.419 378.298L436.044 376.333C439.729 375.629 443.698 374.899 447.841 374.165L448.191 376.134C444.056 376.867 440.096 377.595 436.419 378.298V378.298ZM459.989 374.103L459.659 372.13C463.427 371.498 467.371 370.852 471.49 370.191L471.806 372.166C467.691 372.826 463.752 373.472 459.989 374.103Z" fill="white"/>
<path d="M483.866 370.267L483.559 368.29C485.503 367.989 487.482 367.686 489.495 367.379L489.795 369.355C487.784 369.662 485.807 369.966 483.866 370.267Z" fill="white"/>
<path d="M528.129 167.118L537.214 159.852C530.156 159.073 527.256 162.922 526.07 165.969C520.556 163.679 514.554 166.68 514.554 166.68L532.731 173.279C531.814 170.829 530.217 168.692 528.129 167.118V167.118Z" fill="#3F3D56"/>
<path d="M359.376 223.37L368.46 216.104C361.403 215.325 358.503 219.174 357.316 222.221C351.803 219.931 345.8 222.932 345.8 222.932L363.977 229.53C363.06 227.081 361.464 224.944 359.376 223.37V223.37Z" fill="#3F3D56"/>
<path d="M403.785 106.921L412.869 99.6545C405.812 98.8759 402.912 102.725 401.725 105.771C396.212 103.482 390.209 106.482 390.209 106.482L408.386 113.081C407.469 110.632 405.873 108.495 403.785 106.921Z" fill="#3F3D56"/>
<path d="M502.544 430.441C502.544 430.441 494.675 430.441 493.801 435.25C492.927 440.059 491.615 492.517 492.49 499.074C493.364 505.632 493.364 504.32 493.364 504.32C493.364 504.32 491.621 516.781 495.552 517.327C499.484 517.872 499.484 503.009 499.484 503.009L502.544 449.676V430.441Z" fill="#9E616A"/>
<path d="M536.642 430.441C536.642 430.441 544.511 430.441 545.385 435.25C546.259 440.059 547.571 492.517 546.697 499.074C545.822 505.632 545.822 504.32 545.822 504.32C545.822 504.32 547.565 516.781 543.634 517.327C539.702 517.872 539.702 503.009 539.702 503.009L536.642 449.676V430.441Z" fill="#9E616A"/>
<path d="M501.233 613.172H497.735C496.702 613.172 495.679 613.376 494.724 613.771C493.77 614.166 492.902 614.746 492.171 615.477C491.441 616.207 490.861 617.075 490.466 618.029C490.07 618.984 489.867 620.007 489.867 621.041V621.041H511.287V610.986H501.233V613.172Z" fill="#181921"/>
<path d="M534.893 613.172H538.391C540.478 613.172 542.479 614.001 543.955 615.477C545.43 616.952 546.259 618.954 546.259 621.041V621.041H524.839V610.986H534.893V613.172Z" fill="#181921"/>
<path d="M516.095 420.388C522.373 420.388 527.461 415.299 527.461 409.022C527.461 402.745 522.373 397.656 516.095 397.656C509.818 397.656 504.729 402.745 504.729 409.022C504.729 415.299 509.818 420.388 516.095 420.388Z" fill="#9E616A"/>
<path d="M513.473 415.142C513.473 415.142 512.161 429.568 510.412 430.879C508.664 432.191 528.773 430.005 528.773 430.005C528.773 430.005 521.778 419.513 523.09 416.016C524.401 412.519 513.473 415.142 513.473 415.142Z" fill="#9E616A"/>
<path d="M539.265 430.441C539.265 430.441 515.222 420.387 499.484 430.441C499.484 430.441 495.55 440.496 498.61 446.179C501.67 451.862 506.478 465.414 501.67 474.594C496.861 483.774 502.107 479.84 502.107 479.84C502.107 479.84 495.987 504.32 495.113 523.555C494.238 542.79 497.735 611.86 500.358 612.297C502.981 612.734 511.287 613.608 512.162 612.297C513.036 610.985 519.156 519.62 519.156 519.62C519.156 519.62 521.779 613.171 524.402 613.171C527.025 613.171 534.019 613.171 535.331 610.985C536.642 608.8 547.571 524.429 543.637 506.943C539.702 489.457 537.079 480.714 537.079 480.714C537.079 480.714 541.888 477.654 540.576 475.905C539.265 474.157 532.708 455.359 535.768 452.299C538.828 449.239 539.265 430.441 539.265 430.441Z" fill="#181921"/>
<path d="M523.309 420.531C533.449 420.531 541.669 412.311 541.669 402.171C541.669 392.031 533.449 383.811 523.309 383.811C513.168 383.811 504.948 392.031 504.948 402.171C504.948 412.311 513.168 420.531 523.309 420.531Z" fill="#181921"/>
<path d="M534.774 392.98C531.68 392.253 528.985 390.363 527.247 387.702C525.51 385.041 524.863 381.813 525.442 378.688C525.389 378.875 525.338 379.065 525.293 379.258C524.545 382.45 525.095 385.809 526.823 388.596C528.55 391.383 531.314 393.37 534.506 394.12C537.698 394.87 541.057 394.322 543.845 392.596C546.634 390.87 548.622 388.107 549.374 384.916C549.419 384.724 549.459 384.531 549.494 384.339C548.621 387.395 546.605 389.997 543.864 391.606C541.123 393.215 537.868 393.707 534.774 392.98V392.98Z" fill="#181921"/>
<path d="M535.521 395.372C540.483 395.372 544.506 391.349 544.506 386.387C544.506 381.425 540.483 377.402 535.521 377.402C530.559 377.402 526.536 381.425 526.536 386.387C526.536 391.349 530.559 395.372 535.521 395.372Z" fill="#181921"/>
</g>
<defs>
<clipPath id="clip0">
<rect width="885.87" height="622.804" fill="white"/>
</clipPath>
</defs>
</svg>
