<svg width="240" height="133" viewBox="0 0 240 133" fill="none" xmlns="http://www.w3.org/2000/svg">
<g clip-path="url(#clip0)">
<path d="M62.9263 41.6647C70.5175 41.6647 76.6715 35.5163 76.6715 27.9319C76.6715 20.3476 70.5175 14.1992 62.9263 14.1992C55.3351 14.1992 49.1812 20.3476 49.1812 27.9319C49.1812 35.5163 55.3351 41.6647 62.9263 41.6647Z" fill="#FF6584"/>
<path d="M106.03 70.2505H38.6001C38.5157 70.2516 38.4313 70.245 38.3481 70.2306L70.2393 15.0406C70.4339 14.6969 70.7164 14.4109 71.0578 14.212C71.3993 14.013 71.7874 13.9082 72.1827 13.9082C72.578 13.9082 72.9662 14.013 73.3076 14.212C73.6491 14.4109 73.9315 14.6969 74.1262 15.0406L95.5291 52.0774L96.5545 53.8496L106.03 70.2505Z" fill="#3F3D56"/>
<path opacity="0.2" d="M106.03 70.2492H83.0078L94.3093 53.8481L95.1227 52.6667L95.5294 52.0762L96.5549 53.8481L106.03 70.2492Z" fill="black"/>
<path d="M143.574 70.2507H85.2529L96.5544 53.8497L97.3677 52.6682L112.095 31.2946C113.06 29.8938 115.383 29.8065 116.518 31.0304C116.594 31.1139 116.665 31.2021 116.73 31.2946L143.574 70.2507Z" fill="#3F3D56"/>
<path d="M160.694 61.1708C162.981 61.1708 164.836 59.3181 164.836 57.0327C164.836 54.7472 162.981 52.8945 160.694 52.8945C158.406 52.8945 156.552 54.7472 156.552 57.0327C156.552 59.3181 158.406 61.1708 160.694 61.1708Z" fill="#2373FF"/>
<path d="M161.093 69.4978H160.245L160.631 56.4102L161.093 69.4978Z" fill="#3F3D56"/>
<path d="M160.706 58.8899L161.617 57.6309L160.694 59.2015L160.594 59.0271L160.706 58.8899Z" fill="#3F3D56"/>
<path d="M160.607 60.1611L159.696 58.9023L160.619 60.4728L160.719 60.2983L160.607 60.1611Z" fill="#3F3D56"/>
<path d="M198.688 61.1708C200.975 61.1708 202.83 59.3181 202.83 57.0327C202.83 54.7472 200.975 52.8945 198.688 52.8945C196.4 52.8945 194.546 54.7472 194.546 57.0327C194.546 59.3181 196.4 61.1708 198.688 61.1708Z" fill="#2373FF"/>
<path d="M199.087 69.4978H198.239L198.626 56.4102L199.087 69.4978Z" fill="#3F3D56"/>
<path d="M198.7 58.8899L199.611 57.6309L198.688 59.2015L198.588 59.0271L198.7 58.8899Z" fill="#3F3D56"/>
<path d="M198.601 60.1611L197.69 58.9023L198.613 60.4728L198.713 60.2983L198.601 60.1611Z" fill="#3F3D56"/>
<path d="M172.692 57.1999C176.07 57.1999 178.809 54.4636 178.809 51.0882C178.809 47.7129 176.07 44.9766 172.692 44.9766C169.313 44.9766 166.575 47.7129 166.575 51.0882C166.575 54.4636 169.313 57.1999 172.692 57.1999Z" fill="#2373FF"/>
<path d="M173.282 69.4972H172.029L172.6 50.168L173.282 69.4972Z" fill="#3F3D56"/>
<path d="M172.711 53.8317L174.056 51.9727L172.693 54.2922L172.545 54.0343L172.711 53.8317Z" fill="#3F3D56"/>
<path d="M172.563 55.7087L171.218 53.8496L172.582 56.1688L172.729 55.9113L172.563 55.7087Z" fill="#3F3D56"/>
<path d="M187.61 57.1999C190.988 57.1999 193.727 54.4636 193.727 51.0882C193.727 47.7129 190.988 44.9766 187.61 44.9766C184.231 44.9766 181.493 47.7129 181.493 51.0882C181.493 54.4636 184.231 57.1999 187.61 57.1999Z" fill="#2373FF"/>
<path d="M188.2 69.4972H186.947L187.518 50.168L188.2 69.4972Z" fill="#3F3D56"/>
<path d="M187.628 53.8317L188.973 51.9727L187.61 54.2922L187.462 54.0343L187.628 53.8317Z" fill="#3F3D56"/>
<path d="M187.481 55.7087L186.136 53.8496L187.499 56.1688L187.647 55.9113L187.481 55.7087Z" fill="#3F3D56"/>
<path d="M148.917 57.1999C152.295 57.1999 155.034 54.4636 155.034 51.0882C155.034 47.7129 152.295 44.9766 148.917 44.9766C145.538 44.9766 142.799 47.7129 142.799 51.0882C142.799 54.4636 145.538 57.1999 148.917 57.1999Z" fill="#2373FF"/>
<path d="M149.506 69.4972H148.253L148.825 50.168L149.506 69.4972Z" fill="#3F3D56"/>
<path d="M148.935 53.8317L150.28 51.9727L148.917 54.2922L148.77 54.0343L148.935 53.8317Z" fill="#3F3D56"/>
<path d="M148.788 55.7087L147.443 53.8496L148.806 56.1688L148.954 55.9113L148.788 55.7087Z" fill="#3F3D56"/>
<path d="M221.289 133.001H21.6573C19.1421 133.001 16.6515 132.506 14.3278 131.544C12.004 130.583 9.89265 129.173 8.11414 127.396C6.33563 125.619 4.92484 123.51 3.96232 121.188C2.9998 118.866 2.50439 116.378 2.50439 113.865C2.50439 111.352 2.9998 108.864 3.96232 106.542C4.92484 104.221 6.33563 102.111 8.11414 100.334C9.89265 98.5575 12.004 97.148 14.3278 96.1863C16.6515 95.2247 19.1421 94.7297 21.6573 94.7297H220.847C222.801 94.7297 224.674 93.9543 226.056 92.5741C227.437 91.1938 228.213 89.3219 228.213 87.3699C228.213 85.418 227.437 83.546 226.056 82.1657C224.674 80.7855 222.801 80.0101 220.847 80.0101H15.0274V68.2344H220.847C225.927 68.2344 230.798 70.2504 234.39 73.839C237.982 77.4277 240 82.2948 240 87.3699C240 92.445 237.982 97.3122 234.39 100.901C230.798 104.489 225.927 106.505 220.847 106.505H21.6573C19.7035 106.505 17.8298 107.281 16.4484 108.661C15.0669 110.041 14.2908 111.913 14.2908 113.865C14.2908 115.817 15.0669 117.689 16.4484 119.069C17.8298 120.45 19.7035 121.225 21.6573 121.225H221.289V133.001Z" fill="#E6E6E6"/>
<path d="M31.5285 73.8262H22.394V74.415H31.5285V73.8262Z" fill="white"/>
<path d="M57.4587 73.8262H48.3242V74.415H57.4587V73.8262Z" fill="white"/>
<path d="M83.3884 73.8262H74.2539V74.415H83.3884V73.8262Z" fill="white"/>
<path d="M109.319 73.8262H100.184V74.415H109.319V73.8262Z" fill="white"/>
<path d="M135.249 73.8262H126.114V74.415H135.249V73.8262Z" fill="white"/>
<path d="M161.179 73.8262H152.044V74.415H161.179V73.8262Z" fill="white"/>
<path d="M187.109 73.8262H177.974V74.415H187.109V73.8262Z" fill="white"/>
<path d="M213.039 73.8262H203.904V74.415H213.039V73.8262Z" fill="white"/>
<path d="M31.5285 100.322H22.394V100.911H31.5285V100.322Z" fill="white"/>
<path d="M57.4587 100.322H48.3242V100.911H57.4587V100.322Z" fill="white"/>
<path d="M83.3884 100.322H74.2539V100.911H83.3884V100.322Z" fill="white"/>
<path d="M109.319 100.322H100.184V100.911H109.319V100.322Z" fill="white"/>
<path d="M135.249 100.322H126.114V100.911H135.249V100.322Z" fill="white"/>
<path d="M161.179 100.322H152.044V100.911H161.179V100.322Z" fill="white"/>
<path d="M187.109 100.322H177.974V100.911H187.109V100.322Z" fill="white"/>
<path d="M213.039 100.322H203.904V100.911H213.039V100.322Z" fill="white"/>
<path d="M31.5285 126.818H22.394V127.407H31.5285V126.818Z" fill="white"/>
<path d="M57.4587 126.818H48.3242V127.407H57.4587V126.818Z" fill="white"/>
<path d="M83.3884 126.818H74.2539V127.407H83.3884V126.818Z" fill="white"/>
<path d="M109.319 126.818H100.184V127.407H109.319V126.818Z" fill="white"/>
<path d="M135.249 126.818H126.114V127.407H135.249V126.818Z" fill="white"/>
<path d="M161.179 126.818H152.044V127.407H161.179V126.818Z" fill="white"/>
<path d="M187.109 126.818H177.974V127.407H187.109V126.818Z" fill="white"/>
<path d="M213.039 126.818H203.904V127.407H213.039V126.818Z" fill="white"/>
<path d="M160.262 23.3672C161.222 23.3663 162.166 23.61 163.005 24.0753H157.526C158.363 23.6101 159.305 23.3664 160.262 23.3672Z" fill="#E6E6E6"/>
<path d="M149.631 22.6582C151.234 22.6563 152.798 23.1511 154.108 24.0744H145.16C146.468 23.1522 148.03 22.6575 149.631 22.6582Z" fill="#E6E6E6"/>
<path d="M89.4124 13.6959C89.6069 10.2613 91.0159 7.00738 93.3882 4.5142C95.7606 2.02101 98.9421 0.450662 102.366 0.0831161C105.789 -0.28443 109.232 0.574722 112.08 2.5074C114.929 4.44007 116.998 7.32063 117.918 10.6355C118.094 10.6292 118.27 10.6221 118.447 10.6221C121.586 10.6227 124.64 11.6387 127.153 13.518C129.666 15.3973 131.502 18.039 132.387 21.0478C134.467 20.1348 136.792 19.9367 138.996 20.4846C141.201 21.0325 143.161 22.2954 144.571 24.0757H99.251C97.9289 24.0794 96.6196 23.8165 95.4015 23.3028C94.1835 22.7891 93.0817 22.0352 92.1621 21.086C91.2426 20.1369 90.5242 19.0121 90.0499 17.7791C89.5757 16.5461 89.3554 15.2301 89.4021 13.91C89.4051 13.8387 89.4085 13.7674 89.4124 13.6959Z" fill="#E6E6E6"/>
<path d="M163.569 33.9648C162.609 33.9639 161.665 34.2077 160.826 34.6729H166.305C165.468 34.2078 164.526 33.9641 163.569 33.9648Z" fill="#E6E6E6"/>
<path d="M174.2 33.2559C172.597 33.254 171.032 33.7488 169.723 34.672H178.671C177.362 33.7499 175.801 33.2551 174.2 33.2559Z" fill="#E6E6E6"/>
<path d="M234.418 24.2935C234.224 20.859 232.815 17.605 230.442 15.1119C228.07 12.6187 224.888 11.0483 221.465 10.6808C218.042 10.3132 214.599 11.1724 211.75 13.1051C208.902 15.0377 206.833 17.9183 205.913 21.2332C205.737 21.2269 205.561 21.2198 205.383 21.2198C202.244 21.2204 199.19 22.2363 196.677 24.1157C194.164 25.995 192.328 28.6367 191.443 31.6455C189.363 30.7324 187.039 30.5343 184.834 31.0822C182.63 31.6301 180.669 32.8931 179.26 34.6733H224.58C225.902 34.677 227.211 34.4142 228.429 33.9005C229.647 33.3868 230.749 32.6328 231.668 31.6837C232.588 30.7346 233.306 29.6098 233.781 28.3768C234.255 27.1437 234.475 25.8277 234.428 24.5076C234.426 24.4364 234.422 24.365 234.418 24.2935Z" fill="#E6E6E6"/>
<path d="M204.204 124.771L209.471 124.773L209.472 123.938L204.204 123.935L204.204 124.771Z" fill="#3F3D56"/>
<path d="M166.121 124.125L167.208 124.376L208.51 124.398L208.881 123.533C209.529 122.05 209.751 120.417 209.523 118.815C209.345 117.621 208.9 116.434 207.887 115.919L206.054 103.722L183.204 103.682L174.364 110.806C174.364 110.806 170.193 110.731 167.928 113.549C167.11 114.597 166.628 115.866 166.543 117.192L166.453 118.658L166.121 124.125Z" fill="#2373FF"/>
<path d="M175.193 129.015C178.009 129.015 180.293 126.734 180.293 123.92C180.293 121.106 178.009 118.824 175.193 118.824C172.376 118.824 170.093 121.106 170.093 123.92C170.093 126.734 172.376 129.015 175.193 129.015Z" fill="#3F3D56"/>
<path d="M175.193 126.602C176.675 126.602 177.877 125.401 177.877 123.92C177.877 122.439 176.675 121.238 175.193 121.238C173.71 121.238 172.508 122.439 172.508 123.92C172.508 125.401 173.71 126.602 175.193 126.602Z" fill="#CCCCCC"/>
<path d="M200.358 129.029C203.175 129.029 205.458 126.747 205.458 123.933C205.458 121.119 203.175 118.838 200.358 118.838C197.542 118.838 195.258 121.119 195.258 123.933C195.258 126.747 197.542 129.029 200.358 129.029Z" fill="#3F3D56"/>
<path d="M200.359 126.616C201.841 126.616 203.043 125.415 203.043 123.934C203.043 122.453 201.841 121.252 200.359 121.252C198.876 121.252 197.674 122.453 197.674 123.934C197.674 125.415 198.876 126.616 200.359 126.616Z" fill="#CCCCCC"/>
<path d="M177.876 109.973L190.214 109.978H191.72L194.262 109.98V109.795L194.264 107.561L194.266 105.052H192.574L191.068 105.051L188.401 105.049H186.895L183.815 105.047L177.876 109.973Z" fill="white"/>
<path d="M196.27 109.982L202.79 109.986L202.791 108.708V106.474L202.793 105.058H201.839L200.332 105.056L196.271 105.055L196.27 109.982Z" fill="white"/>
<path d="M193.424 115.244L194.26 115.244L194.261 113.657L193.425 113.657L193.424 115.244Z" fill="#3F3D56"/>
<path d="M181.219 112.23L181.219 111.395L179.631 111.394L179.63 112.229L181.219 112.23Z" fill="#3F3D56"/>
<path d="M180.634 111.762L180.542 111.762C180.312 111.762 180.085 111.716 179.873 111.628C179.661 111.541 179.469 111.412 179.307 111.25C179.144 111.087 179.016 110.895 178.928 110.683C178.84 110.471 178.795 110.244 178.795 110.015C178.795 109.786 178.841 109.559 178.929 109.347C179.017 109.135 179.145 108.943 179.308 108.781C179.47 108.619 179.663 108.49 179.875 108.403C180.087 108.315 180.314 108.27 180.544 108.27L180.636 108.27L180.634 111.762Z" fill="#3F3D56"/>
<path d="M166.454 118.658C167.086 118.726 167.722 118.57 168.25 118.216C168.778 117.862 169.165 117.333 169.341 116.723C169.517 116.112 169.472 115.459 169.213 114.878C168.955 114.298 168.5 113.827 167.928 113.549C167.111 114.597 166.628 115.866 166.543 117.192L166.454 118.658Z" fill="#3F3D56"/>
<path d="M191.068 105.051L194.262 109.795L194.264 107.561L192.574 105.052L191.068 105.051Z" fill="#F2F2F2"/>
<path d="M200.333 105.055L202.791 108.706V106.472L201.839 105.057L200.333 105.055Z" fill="#F2F2F2"/>
<path d="M186.895 105.049L190.214 109.978H191.72L188.401 105.049H186.895Z" fill="#F2F2F2"/>
<path d="M13.5543 84.131C21.0402 84.131 27.1087 78.068 27.1087 70.5889C27.1087 63.1099 21.0402 57.0469 13.5543 57.0469C6.06848 57.0469 0 63.1099 0 70.5889C0 78.068 6.06848 84.131 13.5543 84.131Z" fill="#3F3D56"/>
<path d="M13.6108 74.6665L6.82771 67.8895C6.60706 67.6686 6.48323 67.3692 6.4834 67.0571C6.48357 66.745 6.60774 66.4457 6.82863 66.225C7.04952 66.0043 7.34907 65.8802 7.66146 65.8801C7.97385 65.8799 8.27353 66.0036 8.49467 66.2241L13.498 71.2229L29.4638 53.0327C29.6701 52.7984 29.9609 52.6555 30.2726 52.6353C30.5842 52.6151 30.8912 52.7193 31.126 52.925C31.3608 53.1307 31.5042 53.4212 31.5249 53.7325C31.5455 54.0438 31.4417 54.3506 31.2361 54.5855L13.6108 74.6665Z" fill="#2373FF"/>
</g>
<defs>
<clipPath id="clip0">
<rect width="240" height="133" fill="white"/>
</clipPath>
</defs>
</svg>
