<svg width="200" height="143" viewBox="0 0 200 143" fill="none" xmlns="http://www.w3.org/2000/svg">
<g clip-path="url(#clip0)">
<path d="M155.022 64.8956C154.65 63.9407 155.181 63.4633 155.393 62.6145C155.606 61.7657 154.915 59.1133 154.915 59.1133C154.915 59.1133 152.685 49.9359 151.995 48.1323C151.702 47.369 151.068 46.844 150.433 46.4914C150.39 46.2573 150.328 46.1063 150.242 46.0634C149.627 45.7559 148.095 45.0884 147.073 44.9039C146.882 44.576 146.656 44.2701 146.398 43.9917C146.577 43.6479 146.66 43.2621 146.639 42.8751C146.574 41.8742 145.815 40.9774 145.913 39.9793C145.988 39.2223 146.542 38.6005 146.756 37.8704C146.846 37.5426 146.867 37.1998 146.818 36.8634C146.77 36.5269 146.653 36.2041 146.474 35.9148C146.631 36.0818 146.788 36.2487 146.945 36.4157C147.159 36.0957 147.262 35.7147 147.238 35.3308C147.214 34.9469 147.065 34.5814 146.814 34.2902C146.316 33.7413 145.485 33.5354 145.099 32.9033C144.702 32.2538 144.915 31.3712 144.54 30.709C143.621 29.0868 141.269 30.2367 139.861 29.6705C139.282 29.4378 138.842 29.1818 138.191 29.2002C137.637 29.2319 137.089 29.334 136.561 29.5041C135.804 29.723 135.145 30.1949 134.694 30.841C134.739 30.7904 134.788 30.7438 134.84 30.7017C135.182 30.4345 135.78 30.4568 135.96 30.8508C136.003 30.9498 136.021 31.0579 136.013 31.1655C135.983 31.6405 135.568 31.9952 135.155 32.2329C134.742 32.4705 134.278 32.6694 134.009 33.0619C133.564 33.7097 133.826 34.579 133.826 35.3644C133.822 35.8635 133.706 36.3554 133.487 36.804C133.268 37.2525 132.951 37.6463 132.559 37.9562L134.058 37.3443C133.342 38.5952 132.873 39.9712 132.674 41.3982L134.7 39.7262C133.95 40.9192 133.494 42.2732 133.369 43.6767L134.996 42.0121C135.07 42.1421 135.107 42.2899 135.103 42.4395L134.934 43.0929C134.874 43.2225 134.807 43.3491 134.735 43.4721C134.473 43.921 134.202 44.4735 134.447 44.9319L134.448 44.9313C134.191 45.7972 133.802 46.6636 132.937 47.0846C133.896 47.1849 134.897 46.7059 135.33 45.9435C135.401 46.0807 135.486 46.2098 135.585 46.3286C135.613 46.3634 135.64 46.398 135.668 46.4326L135.429 46.5918L134.788 47.0183C134.788 47.0183 130.593 47.867 130.858 49.4585C130.869 49.524 130.882 49.6021 130.897 49.6897L129.69 51.7396L127.937 57.681C127.937 57.681 127.034 59.5907 127.194 60.3864C127.353 61.1822 127.194 61.5005 127.194 62.9328C127.194 64.3651 126.503 64.9486 127.194 66.1156C127.884 67.2827 129.955 70.6778 129.955 70.6778L130.41 71.0186C130.388 71.2233 130.396 71.4302 130.433 71.6327C130.858 73.7546 134.841 94.0721 134.841 94.0721C134.841 94.0721 132.823 110.146 136.912 111.154C137.425 111.28 137.929 111.395 138.418 111.497L139.037 115.557L138.665 120.702C138.665 120.702 135.85 127.068 141.002 127.44C146.153 127.811 143.816 121.922 143.816 121.922C144.088 121.42 144.199 120.846 144.135 120.278C144.082 119.806 143.64 117.348 143.206 114.985C145.161 114.751 144.796 112.678 144.535 111.767C144.648 111.701 144.732 111.596 144.772 111.472C144.831 111.26 144.694 110.428 144.445 109.261C144.243 108.102 143.897 106.224 143.661 104.953L144.931 105.159L150.295 73.7546C150.295 73.7546 150.331 73.2547 150.314 72.5235C151.048 72.1446 151.804 71.8116 152.579 71.5266C154.331 70.8369 155.022 68.2906 155.606 67.2297C156.19 66.1687 155.393 65.8504 155.022 64.8956ZM135.977 44.9002C136.151 44.7807 136.354 44.7118 136.565 44.7011C136.52 44.9479 136.095 45.02 135.738 45.1492C135.804 45.0536 135.885 44.9695 135.977 44.9002ZM133.301 60.7047C133.731 61.4108 132.952 63.3242 132.25 64.8426C131.848 64.4963 131.428 64.6055 131.92 63.6224C132.256 62.9994 132.455 62.3123 132.504 61.6066C132.504 61.4853 132.567 60.594 133.09 60.2238C133.145 60.3904 133.216 60.5514 133.301 60.7047ZM131.689 66.7989C131.933 66.6999 132.302 66.5478 132.799 66.3787C132.561 66.6915 132.289 67.0641 132.015 67.4708C131.911 67.3924 131.828 67.2907 131.771 67.1739C131.715 67.0571 131.687 66.9286 131.689 66.7989ZM148.914 67.4949C148.592 67.1523 148.331 66.8458 148.116 66.5715C148.516 66.6768 148.924 66.7901 149.339 66.9114C149.546 66.9422 149.757 66.9282 149.958 66.8702C149.976 67.2369 149.977 67.7602 149.977 67.7602L149.395 68.1624C149.262 67.9214 149.101 67.6973 148.914 67.4949V67.4949ZM150.562 65.6552C150.556 65.6605 150.55 65.6667 150.543 65.6724C150.515 65.4627 150.467 65.2559 150.401 65.0547C150.053 63.9583 149.867 62.0128 149.768 60.3527L150.773 63.7285C150.773 63.7285 150.826 65.426 150.562 65.6552Z" fill="#D9D9D9"/>
<path d="M129.934 51.7107C129.934 51.7107 124.485 42.3566 124.315 41.3361C124.145 40.3157 121.42 38.4448 121.42 38.4448C120.49 37.5151 118.963 37.2209 117.355 37.2362C117.961 36.7361 115.8 36.3998 115.632 36.0638C115.461 35.7236 114.95 35.7236 114.269 35.2134C113.588 34.7032 111.888 35.1283 111.888 35.1284C111.633 34.5912 111.455 34.0205 111.36 33.4334C112.086 32.5759 112.483 31.489 112.482 30.3663C112.482 30.354 112.481 30.342 112.481 30.3298C112.524 30.3972 112.567 30.465 112.611 30.5349C112.93 28.6265 113.493 27.0401 112.42 25.2992C111.659 24.0653 110.468 23.1561 109.077 22.7465L108.055 23.5632L108.452 22.6106C108.118 22.5597 107.78 22.5402 107.442 22.5523L106.522 23.7333L106.903 22.5928C106.105 22.6918 105.336 22.9549 104.645 23.3656C103.954 23.7762 103.356 24.3254 102.888 24.9785C101.718 26.6642 101.796 29.0075 102.947 30.7064C102.951 30.6945 102.954 30.6829 102.958 30.671C103.009 31.4658 103.258 32.2351 103.684 32.9086C104.109 33.5821 104.697 34.1381 105.394 34.5258L105.683 36.8365C105.422 37.0779 105.089 37.225 104.735 37.2543C104.224 37.2543 103.713 38.6149 103.713 38.6149C103.713 38.6149 103.424 38.7609 103.112 39.4498C102.308 39.9963 99.8562 41.7133 98.9466 42.913C98.4085 43.1776 97.8304 43.7659 97.9243 45.0778C98.0945 47.4588 97.9243 58.5137 97.9243 58.5137C97.9243 58.5137 96.3919 67.8679 96.9027 68.5482C97.4135 69.2285 96.7324 71.4394 96.7324 71.4394L97.2432 71.5528V72.1197C97.2432 72.1197 95.7069 79.2338 98.0945 78.9228C102.011 78.4125 99.1161 72.63 99.1161 72.63V71.9686L99.7971 72.1197C99.7971 72.1197 100.138 69.7387 100.819 69.5686C101.056 69.5095 101.334 68.8737 101.596 68.0702C101.748 69.3237 101.84 70.0788 101.84 70.0788L102.906 69.8424L103.202 70.9292C103.276 70.9702 103.352 71.0048 103.431 71.0328L103.202 72.2898C103.202 72.2898 103.032 73.6504 103.202 74.5008C103.288 74.9297 106.449 84.0965 109.561 93.0787L109.502 95.25C109.502 95.25 107.97 96.9507 108.31 98.1413C108.651 99.3318 107.459 109.196 107.459 109.196L106.437 114.128L106.694 114.207L106.458 115.072C106.255 115.174 106.074 115.316 105.927 115.489C104.564 117.02 102.862 121.442 102.862 121.442C102.862 121.442 99.7972 126.034 104.564 125.864C109.332 125.693 109.672 123.993 109.672 123.993C109.672 123.993 110.353 119.571 110.353 119.401C110.353 119.231 110.013 117.482 110.013 117.482L109.881 117.337L109.973 115.215L110.864 115.489C110.864 115.489 111.716 111.067 112.397 110.557C112.635 110.378 113.268 108.392 113.991 105.841C114.73 107.966 115.446 115.316 115.678 115.983C115.595 116.095 115.523 116.215 115.461 116.339C114.696 117.806 113.843 119.226 112.907 120.591C112.907 120.591 107.459 123.823 112.907 124.673C112.907 124.673 115.972 124.843 117.504 123.823C119.037 122.802 123.123 121.271 123.123 120.931C123.123 120.591 122.102 115.591 121.08 116.135L120.396 114.563L121.08 114.298L116.769 94.9711C116.871 94.5592 116.946 94.141 116.994 93.7193C116.994 92.8287 119.198 75.4864 119.759 71.0877C122.228 71.7864 124.485 66.6773 124.485 66.6773L125.045 65.671L125.847 66.1671C125.847 66.1671 126.528 64.4664 127.55 64.2963C128.571 64.1262 130.444 55.1122 130.444 53.9217C130.429 53.1574 130.255 52.4046 129.934 51.7107ZM122.001 65.0359C121.833 64.7701 121.639 64.5223 121.42 64.2963C121.866 63.1381 122.207 61.9429 122.442 60.7247C122.783 58.8538 121.931 52.7311 121.931 52.7311L121.916 52.3153C122.752 53.4111 123.804 54.872 123.804 55.2823C123.804 55.4803 123.85 55.6756 123.939 55.8527C124.028 56.0298 124.156 56.1839 124.315 56.3027L123.293 59.8743C123.293 59.8743 122.612 61.5751 122.442 62.4254C122.34 62.9296 122.283 63.4418 122.272 63.9561L122.513 64.1053L122.001 65.0359Z" fill="#D9D9D9"/>
<path d="M51.9868 54.8587L52.8953 54.6545L49.1495 44.1098L41.0621 41.1335C41.0621 41.1335 41.0311 41.1678 40.9739 41.227C40.2841 40.5601 39.9913 39.5924 39.869 38.8307C40.5193 38.5683 41.1037 38.1657 41.5804 37.6516C42.057 37.1376 42.4142 36.5248 42.6264 35.857C42.8387 35.1892 42.9007 34.4828 42.8082 33.7883C42.7156 33.0938 42.4707 32.4282 42.0909 31.8391C42.7573 31.6793 42.9953 31.0754 43.2189 30.3553C43.0805 30.3145 42.9392 30.2837 42.7963 30.2634C42.9011 30.0286 43.0059 29.7939 43.1107 29.5591C42.9265 29.5426 42.7423 29.5261 42.5581 29.5095C42.6052 29.2901 42.6523 29.0706 42.6994 28.8512C42.4645 29.0132 42.2296 29.1751 41.9947 29.3371C42.0745 29.1067 42.0943 28.8599 42.0524 28.6197C42.0104 28.3796 41.908 28.154 41.7548 27.9643C41.4429 27.5878 41.036 27.3012 40.5762 27.1342C39.677 26.7808 38.6977 26.6818 37.7459 26.848C36.794 27.0141 35.9064 27.4391 35.1805 28.0762L35.1296 27.878C33.6922 28.9818 32.7516 30.61 32.5141 32.4054C32.2886 34.1803 33.1422 35.9874 34.2516 37.3919C34.2423 37.3306 34.2322 37.2694 34.2221 37.2083C34.27 37.2743 34.3195 37.3391 34.3706 37.4025L34.507 42.5792L34.1654 42.8716C34.1649 42.8718 28.4347 45.4614 28.2114 48.5545L28.2107 48.5567C27.8668 50.0625 27.6965 57.8859 27.6965 57.8859H28.168L27.6965 60.9473L24.6318 72.8526C24.6318 72.8526 20.7157 77.9548 24.121 78.9753C26.237 79.6094 26.8408 77.157 26.9947 75.2091C27.1173 75.6919 27.484 76.0183 28.2073 76.084C28.2642 76.0892 28.325 76.0935 28.3838 76.0982C26.7737 80.2546 27.8668 93.7718 27.8668 93.7718C27.0154 95.4726 37.0609 107.208 37.0609 107.208L37.6658 106.885L37.7967 107.147C37.4601 107.179 37.2312 107.208 37.2312 107.208V112.48C37.2312 112.48 35.6988 117.752 37.742 118.773C38.2706 119.037 38.8221 118.845 39.3491 118.416C39.2484 120.043 39.1041 122.471 39.1041 123.025C39.1041 123.875 41.3175 125.406 41.3175 125.406C41.3175 125.406 41.8283 127.277 45.9146 127.277C50.0009 127.277 46.9361 122.344 46.9361 122.344L44.7227 117.412C44.7227 117.412 44.5571 117.493 44.0559 117.086L44.2354 115.113L45.2335 115.201L46.5956 95.3025C46.5956 95.3025 47.7874 77.6147 47.9577 74.8935C47.9976 74.021 47.977 73.1469 47.8961 72.2773L52.8953 61.9677L51.9868 54.8587ZM48.2982 61.4575L47.7874 63.2356V59.3032L48.2982 61.4575ZM27.0422 74.0701C27.0464 73.4468 27.0154 73.0226 27.0154 73.0226L30.3441 66.3727L30.2504 68.4306C30.2504 68.4306 27.5846 71.799 27.0422 74.0701ZM34.8475 93.2616L38.0825 81.8665L39.9554 95.6426L39.8211 100.651C39.593 100.191 39.4099 99.7095 39.2743 99.2142C38.7635 97.1733 34.8475 93.2616 34.8475 93.2616Z" fill="#D9D9D9"/>
<path d="M80.9227 120.331C79.3274 119.675 76.2307 118.268 75.8553 117.519C75.4799 116.769 73.6031 110.957 73.6031 110.957L73.1198 110.992C73.0575 108.352 72.7914 98.1196 72.3832 96.8963C72.3832 96.8963 74.3538 80.6797 70.4125 74.2118L69.7024 71.346C69.9354 70.1972 69.9055 67.5369 69.7556 67.0877C69.5679 66.5253 71.914 64.7443 71.2571 63.6194C70.6002 62.4946 68.8172 58.6513 68.8172 58.6513C68.8172 58.6513 69.0049 56.2141 66.4712 53.9644C66.4712 53.9644 65.7308 49.7773 62.3943 49.7149C61.9432 48.9286 61.3119 47.6783 61.4976 47.1216C61.6965 46.5255 62.4571 44.6673 62.8866 43.6273C63.1147 43.5243 63.3339 43.4025 63.5417 43.2631C66.1953 42.0755 68.0659 39.2206 68.0659 35.8855C68.0659 32.3153 65.923 29.2938 62.9699 28.2807C63.1014 27.9344 63.1552 27.5634 63.1275 27.1941C63.0997 26.8247 62.9911 26.4659 62.8093 26.1431C62.6275 25.8203 62.377 25.5413 62.0754 25.3258C61.7738 25.1103 61.4285 24.9636 61.0639 24.8961C60.6993 24.8285 60.3243 24.8418 59.9654 24.9349C59.6065 25.028 59.2725 25.1987 58.9869 25.435C58.7013 25.6712 58.4711 25.9672 58.3126 26.3021C58.1541 26.6369 58.0711 27.0025 58.0696 27.3729C57.9072 26.9884 57.8426 26.5697 57.8817 26.1541C57.9207 25.7386 58.0622 25.3392 58.2934 24.9916C58.5246 24.644 58.8384 24.359 59.2067 24.1621C59.5751 23.9651 59.9865 23.8623 60.4043 23.8629C60.5688 23.8631 60.7328 23.8793 60.8942 23.9111C60.3378 23.6468 59.7041 23.5942 59.1117 23.7632C58.5194 23.9322 58.009 24.3112 57.6763 24.8291C57.3437 25.3471 57.2115 25.9684 57.3046 26.5767C57.3976 27.185 57.7096 27.7386 58.182 28.1336C58.2111 28.2261 58.2457 28.3169 58.2854 28.4055C55.5066 29.5256 53.5245 32.4517 53.5245 35.8855C53.5245 39.0706 55.2304 41.818 57.6952 43.0933C57.6821 44.1294 57.4248 45.8762 55.9944 46.9407C55.2555 46.6034 54.23 46.2332 53.5721 46.4012C53.2318 46.1362 52.7184 46.0488 52.0197 46.7466C50.6121 48.1527 49.3921 51.8085 49.3921 54.0582C49.3921 56.3079 49.6737 69.3374 49.6737 69.3374C49.6737 69.3374 48.1722 69.8998 49.2045 70.7435C49.4177 70.9209 49.6852 71.0202 49.9626 71.0249L50.9875 78.6175C50.9875 78.6175 50.3306 85.929 52.8643 86.0227C53.063 86.0336 53.2604 85.9852 53.4314 85.8837L51.5505 94.3654C51.5505 94.3654 47.2338 97.1775 43.8556 102.708C42.1155 105.557 41.248 107.309 40.8147 108.341L40.1957 107.957L38.0374 112.082C38.0374 112.082 33.2515 114.988 34.2838 117.144C35.316 119.3 36.2545 119.862 36.2545 119.862L36.9113 119.581L38.1312 121.831C38.1312 121.831 41.3218 126.424 46.4831 124.08C46.7253 123.755 46.8561 123.361 46.8561 122.955C46.8561 122.55 46.7253 122.156 46.4831 121.831C45.6385 120.612 43.4802 117.987 43.4802 117.987L44.8878 110.863L44.5965 110.683L53.5212 99.8959C53.5212 99.8959 56.1487 98.3024 57.0871 96.8963C58.0255 95.4902 63.8437 80.9609 63.8437 80.9609L67.1281 96.1464C67.1281 96.1464 66.9404 101.677 67.785 105.239C68.2453 107.237 68.5455 109.269 68.6827 111.314L68.4419 111.332L69.0049 115.55C69.0049 115.55 66.5651 121.549 68.2542 122.018C69.4559 122.328 70.6793 122.547 71.914 122.674L72.1017 122.018C72.1017 122.018 79.3274 125.955 81.9549 123.049C81.9549 123.049 82.518 120.987 80.9227 120.331ZM55.2103 74.3055C55.4918 74.5867 55.398 75.899 55.398 75.899L54.8349 79.5548L54.2726 82.0905C54.1948 80.8925 54.0378 79.701 53.8027 78.5237L53.5429 71.5179C53.594 71.55 53.65 71.5734 53.7088 71.5871C53.8965 71.5871 53.8027 69.9936 53.8027 69.9936C53.8027 69.9936 53.9122 69.709 54.0489 69.2599C54.4137 70.3508 54.8591 71.0626 55.3979 71.2122L55.4918 72.4307C55.4918 72.4307 54.2719 72.9932 55.3979 72.9932C55.4633 72.9908 55.5281 72.9811 55.5914 72.9645L55.4918 73.4619C55.4918 73.4619 54.9288 74.0243 55.2103 74.3055Z" fill="#D9D9D9"/>
<path d="M79.3188 124.697C120.98 124.697 154.753 124.141 154.753 123.455C154.753 122.769 120.98 122.213 79.3188 122.213C37.6573 122.213 3.88403 122.769 3.88403 123.455C3.88403 124.141 37.6573 124.697 79.3188 124.697Z" fill="#3F3D56"/>
<path d="M105.72 129.872C151.548 129.872 188.698 128.436 188.698 126.664C188.698 124.892 151.548 123.455 105.72 123.455C59.8931 123.455 22.7427 124.892 22.7427 126.664C22.7427 128.436 59.8931 129.872 105.72 129.872Z" fill="#3F3D56"/>
<path d="M90.4059 134.634C112.896 134.634 131.128 133.198 131.128 131.425C131.128 129.653 112.896 128.217 90.4059 128.217C67.9156 128.217 49.6836 129.653 49.6836 131.425C49.6836 133.198 67.9156 134.634 90.4059 134.634Z" fill="#3F3D56"/>
<path d="M149.262 136.912C159.277 136.912 167.395 136.17 167.395 135.256C167.395 134.341 159.277 133.6 149.262 133.6C139.247 133.6 131.128 134.341 131.128 135.256C131.128 136.17 139.247 136.912 149.262 136.912Z" fill="#3F3D56"/>
<path d="M124.393 142.5C129.143 142.5 132.993 141.758 132.993 140.844C132.993 139.929 129.143 139.188 124.393 139.188C119.643 139.188 115.793 139.929 115.793 140.844C115.793 141.758 119.643 142.5 124.393 142.5Z" fill="#3F3D56"/>
<path d="M54.3465 135.463C59.0963 135.463 62.9469 134.721 62.9469 133.806C62.9469 132.892 59.0963 132.15 54.3465 132.15C49.5966 132.15 45.7461 132.892 45.7461 133.806C45.7461 134.721 49.5966 135.463 54.3465 135.463Z" fill="#3F3D56"/>
<path d="M96.8303 115.07L97.6593 120.867L101.804 120.453L101.39 114.449L96.8303 115.07Z" fill="#FFB8B8"/>
<path d="M77.1427 115.07L76.3137 120.867L72.1689 120.453L72.5834 114.449L77.1427 115.07Z" fill="#FFB8B8"/>
<path d="M71.1329 55.0375C71.1329 55.0375 67.4026 59.3848 68.2315 66.2161C69.0605 73.0475 70.5111 88.5733 70.5111 88.5733L71.5473 116.106L78.179 115.692L79.2151 92.2995L82.531 73.4615L91.4422 95.4046C91.4422 95.4046 95.7942 115.899 96.0014 115.899C96.2087 115.899 102.219 115.278 102.219 115.278L99.3172 91.0574C99.3172 91.0574 94.758 55.8656 92.0639 55.2445C89.3698 54.6235 71.1329 55.0375 71.1329 55.0375Z" fill="#2F2E41"/>
<path d="M102.218 119.626C102.218 119.626 98.4881 117.142 97.0375 120.04C95.5868 122.938 96.8302 125.008 96.8302 125.008C96.8302 125.008 98.0736 125.836 97.4519 126.664C96.8302 127.492 96.623 132.874 102.011 132.046C107.399 131.218 104.705 125.629 104.705 125.629L102.218 119.626Z" fill="#2F2E41"/>
<path d="M71.7546 119.626C71.7546 119.626 75.4849 117.142 76.9356 120.04C78.3862 122.938 77.1428 125.008 77.1428 125.008C77.1428 125.008 75.8994 125.836 76.5211 126.664C77.1428 127.492 77.35 132.874 71.9619 132.046C66.5737 131.218 69.2678 125.629 69.2678 125.629L71.7546 119.626Z" fill="#2F2E41"/>
<path d="M76.2102 14.7753C76.2102 14.7753 78.0753 19.9506 76.6247 22.8487C75.174 25.7468 78.9043 29.059 78.9043 29.059C78.9043 29.059 88.6445 24.0908 87.4011 21.6066C86.1576 19.1225 84.0852 15.8103 84.4997 13.7402L76.2102 14.7753Z" fill="#FFB8B8"/>
<path d="M79.8367 16.7409C83.4992 16.7409 86.4683 13.775 86.4683 10.1165C86.4683 6.458 83.4992 3.49219 79.8367 3.49219C76.1742 3.49219 73.2051 6.458 73.2051 10.1165C73.2051 13.775 76.1742 16.7409 79.8367 16.7409Z" fill="#FFB8B8"/>
<path d="M75.0703 22.5367C75.0703 22.5367 81.7243 28.0677 86.6868 20.2305L91.8566 23.1578L94.5507 54.6234C94.5507 54.6234 79.4223 63.3178 72.1689 55.8654L73.2051 26.677L75.0703 22.5367Z" fill="#D0CDE1"/>
<path d="M77.1599 19.4395L67.817 25.6429L71.1328 40.9617L66.7808 64.7679L73.8269 54.2104L77.1599 19.4395Z" fill="#575A89"/>
<path d="M85.417 17.7129L87.7117 19.2258L97.0374 22.538L95.5868 48.2073L99.5243 64.7681L93.9289 67.6663C93.9289 67.6663 92.8927 59.7999 86.4683 55.8667C80.0439 51.9335 83.9513 18.8911 85.417 17.7129Z" fill="#575A89"/>
<path d="M69.8894 57.9355L72.5835 59.7986C72.5835 59.7986 69.1641 63.4213 68.5424 62.8003C68.3625 62.6277 68.2228 62.4177 68.1332 62.1852C68.0437 61.9526 68.0065 61.7033 68.0243 61.4547L67.4026 60.0057L69.8894 57.9355Z" fill="#FFB8B8"/>
<path d="M87.7987 57.5332L86.8828 58.971C86.8828 58.971 84.1887 60.213 84.8104 61.0411C85.4321 61.8691 90.6131 63.7322 91.6493 61.8691L92.6855 60.006L87.7987 57.5332Z" fill="#FFB8B8"/>
<path d="M69.0604 25.4355L67.6097 25.6426L65.2265 41.0648C65.2265 41.0648 64.2939 43.8595 65.3301 50.4838C66.3663 57.1082 67.3924 61.4218 67.3924 61.4218L71.9617 58.1432L69.8893 52.7609L72.5834 33.0949L69.0604 25.4355Z" fill="#575A89"/>
<path d="M93.7217 22.123L97.0375 22.5371C97.0375 22.5371 100.768 26.4703 101.39 30.6105C102.011 34.7507 101.804 46.5503 101.804 46.5503L92.2711 61.662L87.0901 57.9359L94.3434 45.1012L90.8204 29.7824L93.7217 22.123Z" fill="#575A89"/>
<path d="M86.1608 4.12597C85.158 2.4993 83.5883 1.30062 81.7538 0.760633L80.4064 1.83736L80.9303 0.58148C80.4897 0.51435 80.0439 0.488609 79.5986 0.504596L78.3862 2.06158L78.888 0.557928C77.836 0.688512 76.8226 1.03541 75.9115 1.57673C75.0005 2.11806 74.2116 2.84208 73.5946 3.70313C72.0516 5.92551 71.7913 9.01613 73.3088 11.2559C73.7254 9.97706 74.2311 8.77709 74.6477 7.49825C74.9751 7.54284 75.3069 7.54445 75.6347 7.50305L76.1416 6.32172L76.2832 7.45309C77.8541 7.31636 80.1842 7.01622 81.6736 6.7412L81.5288 5.87328L82.3952 6.59452C82.8515 6.48958 83.1224 6.39444 83.1 6.32172C84.2076 8.10541 85.3051 9.24469 86.4128 11.0284C86.8332 8.51242 87.5755 6.42109 86.1608 4.12597Z" fill="#2F2E41"/>
<path d="M85.7934 10.8055C86.0414 10.8055 86.2423 10.4039 86.2423 9.90859C86.2423 9.41326 86.0414 9.01172 85.7934 9.01172C85.5455 9.01172 85.3445 9.41326 85.3445 9.90859C85.3445 10.4039 85.5455 10.8055 85.7934 10.8055Z" fill="#FFB8B8"/>
<path d="M157.524 126.99C157.715 133.523 153.893 135.917 149.098 136.057C148.986 136.06 148.875 136.062 148.765 136.063C148.543 136.065 148.322 136.061 148.104 136.052C143.767 135.872 140.334 133.572 140.156 127.497C139.972 121.209 147.785 113.04 148.371 112.436L148.372 112.435C148.395 112.412 148.406 112.4 148.406 112.4C148.406 112.4 157.333 120.458 157.524 126.99Z" fill="#2373FF"/>
<path d="M148.753 135.068L151.799 130.542L148.759 135.555L148.765 136.064C148.543 136.066 148.323 136.062 148.104 136.053L148.256 129.507L148.251 129.457L148.257 129.447L148.271 128.828L144.935 123.99L148.268 128.365L148.279 128.496L148.393 123.551L145.512 118.535L148.402 122.682L148.371 112.436L148.372 112.402L148.373 112.436L148.564 120.511L151.19 117.231L148.572 121.206L148.63 125.63L151.046 121.313L148.639 126.28L148.671 128.74L152.185 122.726L148.681 129.598L148.753 135.068Z" fill="#3F3D56"/>
<path d="M46.444 117.261C46.635 123.794 42.8137 126.188 38.018 126.328C37.9066 126.332 37.7958 126.334 37.6854 126.334C37.463 126.336 37.2427 126.332 37.0246 126.323C32.6875 126.143 29.2543 123.844 29.0767 117.768C28.8929 111.481 36.7055 103.311 37.2917 102.707L37.2927 102.706C37.315 102.683 37.3264 102.672 37.3264 102.672C37.3264 102.672 46.253 110.729 46.444 117.261Z" fill="#2373FF"/>
<path d="M37.6727 125.339L40.7191 120.814L37.679 125.826L37.6853 126.335C37.4629 126.337 37.2427 126.333 37.0246 126.324L37.1757 119.779L37.1716 119.728L37.1771 119.718L37.1916 119.1L33.8555 114.262L37.1877 118.637L37.1995 118.768L37.3136 113.822L34.4321 108.806L37.3218 112.954L37.2917 102.708L37.2917 102.674L37.2927 102.707L37.484 110.782L40.1101 107.502L37.4926 111.478L37.5499 115.901L39.9665 111.584L37.5588 116.552L37.5907 119.012L41.1051 112.998L37.6014 119.87L37.6727 125.339Z" fill="#3F3D56"/>
<path d="M129.447 136.2C129.559 140.035 127.316 141.44 124.501 141.523C124.435 141.524 124.37 141.526 124.305 141.526C124.175 141.527 124.046 141.525 123.918 141.52C121.372 141.414 119.357 140.064 119.252 136.498C119.144 132.807 123.73 128.012 124.074 127.657L124.075 127.657C124.088 127.643 124.095 127.637 124.095 127.637C124.095 127.637 129.334 132.366 129.447 136.2Z" fill="#2373FF"/>
<path d="M124.298 140.943L126.086 138.287L124.302 141.229L124.305 141.527C124.175 141.528 124.046 141.526 123.918 141.521L124.006 137.679L124.004 137.649L124.007 137.643L124.016 137.28L122.057 134.44L124.013 137.009L124.02 137.085L124.087 134.183L122.396 131.238L124.092 133.673L124.074 127.659L124.074 127.639L124.075 127.658L124.187 132.398L125.729 130.473L124.192 132.806L124.226 135.403L125.644 132.869L124.231 135.785L124.25 137.229L126.313 133.699L124.256 137.732L124.298 140.943Z" fill="#3F3D56"/>
<path d="M199.058 11.0965C199.064 11.0774 199.07 11.0582 199.076 11.0391C199.074 11.0474 199.07 11.0555 199.068 11.0639L199.058 11.0965Z" fill="#2F2E41"/>
<path d="M170.098 120.94L185.448 98.1387L170.129 123.393L170.161 125.959C169.041 125.967 167.931 125.949 166.832 125.903L167.594 92.9221L167.573 92.6677L167.601 92.6185L167.674 89.502L150.864 65.1231L167.654 87.1695L167.714 87.8283L168.289 62.9099L153.769 37.6345L168.33 58.5325L168.178 6.90815L168.178 6.73633L168.183 6.90531L169.147 47.5923L182.379 31.0652L169.19 51.0973L169.479 73.3862L181.656 51.6331L169.524 76.663L169.685 89.0568L187.393 58.755L169.738 93.3804L170.098 120.94Z" fill="#3F3D56"/>
<path d="M13.3643 120.056L23.8093 104.54L13.3857 121.725L13.4075 123.471C12.6449 123.477 11.8898 123.464 11.1421 123.433L11.6602 100.991L11.646 100.818L11.6651 100.784L11.7147 98.6635L0.276123 82.0743L11.7012 97.0762L11.7417 97.5245L12.133 80.5683L2.25319 63.3691L12.1611 77.5896L12.0577 42.4607L12.058 42.3438L12.0613 42.4587L12.7172 70.145L21.7214 58.8988L12.7466 72.5301L12.9432 87.6971L21.2289 72.8947L12.9736 89.9269L13.083 98.3605L25.1328 77.741L13.1196 101.303L13.3643 120.056Z" fill="#3F3D56"/>
</g>
<defs>
<clipPath id="clip0">
<rect x="0.276123" y="0.5" width="198.8" height="142" fill="white"/>
</clipPath>
</defs>
</svg>
