<svg width="513" height="513" viewBox="0 0 513 513" fill="none" xmlns="http://www.w3.org/2000/svg">
<path d="M502.199 0.683594H10.1992C4.67637 0.683594 0.199219 5.16075 0.199219 10.6836V502.684C0.199219 508.206 4.67637 512.684 10.1992 512.684H502.199C507.722 512.684 512.199 508.206 512.199 502.684V10.6836C512.199 5.16075 507.722 0.683594 502.199 0.683594Z" fill="#2373FF"/>
<g clip-path="url(#clip0)">
<path d="M289.617 231.605H222.715C221.791 231.605 221.042 232.354 221.042 233.278V280.109C221.042 281.032 221.792 281.781 222.715 281.781H289.617C290.54 281.781 291.289 281.032 291.289 280.109V233.278C291.289 232.354 290.54 231.605 289.617 231.605ZM225.965 278.436L239.44 259.57L246.817 269.881L241.826 278.436H225.965ZM245.701 278.436L266.2 243.288L286.704 278.436H245.701ZM287.943 234.95V273.921L267.647 239.131C267.11 238.333 266.028 238.121 265.23 238.658C265.043 238.783 264.882 238.944 264.756 239.131L248.663 266.728L240.802 255.735C240.49 255.29 239.984 255.023 239.44 255.021C238.9 255.021 238.393 255.281 238.079 255.721L224.389 274.888V234.95H287.943Z" fill="#F7F9FC"/>
<path d="M305.967 274.524L301.324 257.195V226.587C301.324 223.817 299.077 221.57 296.307 221.57H291.771L290.378 216.345C289.649 213.679 286.904 212.1 284.233 212.813L251.531 221.57H216.025C213.255 221.57 211.008 223.817 211.008 226.587V232.427L209.918 232.717C207.249 233.446 205.665 236.186 206.365 238.863L211.008 256.192V286.799C211.008 289.57 213.255 291.817 216.025 291.817H220.561L221.954 297.041C222.674 299.713 225.423 301.295 228.094 300.575C228.095 300.574 228.098 300.574 228.099 300.574L260.801 291.817H296.307C299.077 291.817 301.324 289.57 301.324 286.798V280.96L302.415 280.669C305.083 279.941 306.667 277.2 305.967 274.524V274.524ZM285.1 216.051C285.988 215.814 286.9 216.337 287.144 217.221L288.305 221.57H264.462L285.1 216.051ZM209.597 238.002C209.365 237.108 209.895 236.192 210.785 235.947L211.008 235.888V243.267L209.597 238.002ZM227.231 297.344C226.344 297.581 225.432 297.058 225.187 296.174L224.024 291.817H247.871L227.231 297.344ZM297.979 286.799C297.979 287.723 297.23 288.471 296.307 288.471H216.025C215.102 288.471 214.353 287.723 214.353 286.799V226.587C214.353 225.664 215.102 224.915 216.025 224.915H296.307C297.23 224.915 297.979 225.664 297.979 226.587V286.799ZM301.546 277.433L301.324 277.497V270.118L302.735 275.383C302.963 276.276 302.434 277.188 301.546 277.433Z" fill="#F7F9FC"/>
<path d="M246.131 253.348C249.826 253.348 252.821 250.353 252.821 246.658C252.821 242.963 249.826 239.968 246.131 239.968C242.435 239.968 239.44 242.963 239.44 246.658C239.44 250.353 242.435 253.348 246.131 253.348ZM246.131 243.313C247.978 243.313 249.476 244.81 249.476 246.658C249.476 248.505 247.978 250.002 246.131 250.002C244.283 250.002 242.785 248.505 242.785 246.658C242.785 244.81 244.283 243.313 246.131 243.313Z" fill="#F7F9FC"/>
</g>
<defs>
<clipPath id="clip0">
<rect x="206.199" y="206.684" width="100" height="100" fill="white"/>
</clipPath>
</defs>
</svg>
